<?xml version="1.0" encoding="utf-8"?>
<!-- Generator: Adobe Illustrator 16.0.0, SVG Export Plug-In . SVG Version: 6.00 Build 0)  -->
<!DOCTYPE svg PUBLIC "-//W3C//DTD SVG 1.1//EN" "http://www.w3.org/Graphics/SVG/1.1/DTD/svg11.dtd">
<svg version="1.1" xmlns="http://www.w3.org/2000/svg" xmlns:xlink="http://www.w3.org/1999/xlink" x="0px" y="0px"
	 width="595.275px" height="841.891px" viewBox="0 0 595.275 841.891" enable-background="new 0 0 595.275 841.891"
	 xml:space="preserve">
<g id="Bg">
</g>
<g id="LogoSet">
</g>
<g id="Posters">
</g>
<g id="Flyers">
	<g>
		<rect x="57.775" y="52.5" fill="#B3B3B3" stroke="#000000" stroke-width="3" stroke-miterlimit="10" width="483" height="483"/>
		<polygon fill="#FFFFFF" points="236.275,87 236.275,59 69.275,59 69.275,87 59.275,87 59.275,534 539.275,534 539.275,87 		"/>
		<g>
			<g>
				<path d="M119.143,108.786h14.563v3.926h-4.912v17.346h4.912v3.908h-14.563v-3.908h4.791v-17.346h-4.791V108.786z"/>
				<path d="M140.607,133.966V118.8h-4.911v-3.546h4.911v-1.021c0-1.233,0.195-2.323,0.588-3.269
					c0.392-0.944,0.951-1.74,1.678-2.387c0.727-0.646,1.608-1.132,2.646-1.461c1.037-0.328,2.195-0.492,3.476-0.492
					c0.403,0,0.792,0.014,1.167,0.042c0.375,0.029,0.74,0.066,1.099,0.112c0.356,0.047,0.718,0.099,1.081,0.156
					s0.74,0.121,1.132,0.19l-0.312,3.77c-0.438-0.092-0.933-0.173-1.486-0.242c-0.554-0.068-1.205-0.104-1.955-0.104
					c-1.498,0-2.588,0.317-3.268,0.951c-0.682,0.634-1.021,1.545-1.021,2.732v1.021h6.744v3.546h-6.744v15.166H140.607z"/>
				<path d="M174.908,123.728c0-1.625,0.123-3.155,0.371-4.591s0.586-2.762,1.013-3.978c0.427-1.217,0.925-2.326,1.495-3.329
					c0.571-1.003,1.173-1.891,1.808-2.664c0.634-0.772,1.288-1.427,1.963-1.962c0.675-0.537,1.328-0.948,1.963-1.237l0.934,2.629
					c-0.646,0.496-1.291,1.161-1.937,1.997c-0.646,0.836-1.226,1.874-1.738,3.113s-0.931,2.684-1.254,4.332
					s-0.484,3.534-0.484,5.655v0.449c0,2.134,0.161,4.023,0.484,5.673c0.323,1.648,0.741,3.093,1.254,4.332s1.092,2.279,1.738,3.121
					c0.646,0.842,1.291,1.51,1.937,2.006l-0.934,2.595c-0.635-0.289-1.288-0.704-1.963-1.245c-0.675-0.542-1.329-1.197-1.963-1.963
					c-0.635-0.768-1.236-1.651-1.808-2.655c-0.57-1.003-1.068-2.111-1.495-3.328c-0.427-1.216-0.765-2.54-1.013-3.97
					c-0.248-1.429-0.371-2.963-0.371-4.6V123.728z"/>
				<path d="M197.064,126.114l0.553,2.006l4.98-12.866h5.31l-9.494,21.514c-0.208,0.473-0.476,0.985-0.804,1.539
					s-0.741,1.066-1.237,1.539c-0.495,0.473-1.098,0.871-1.807,1.193s-1.548,0.483-2.517,0.483c-0.23,0-0.443-0.008-0.64-0.025
					c-0.196-0.017-0.386-0.04-0.571-0.069c-0.184-0.028-0.365-0.063-0.545-0.104c-0.178-0.04-0.371-0.089-0.578-0.147l0.588-3.666
					c0.195,0,0.446,0.009,0.752,0.026c0.305,0.018,0.551,0.026,0.734,0.026c0.381,0,0.719-0.115,1.013-0.346
					c0.293-0.231,0.545-0.484,0.752-0.762c0.208-0.276,0.374-0.53,0.501-0.761c0.127-0.231,0.213-0.347,0.26-0.347l1.158-2.179
					l-7.92-17.916h5.258L197.064,126.114z"/>
				<path d="M206.146,124.437c0-1.359,0.196-2.62,0.588-3.778c0.393-1.159,0.966-2.165,1.721-3.018
					c0.756-0.854,1.678-1.522,2.768-2.007c1.089-0.483,2.337-0.726,3.743-0.726c1.407,0,2.658,0.242,3.753,0.726
					c1.096,0.484,2.021,1.153,2.776,2.007c0.755,0.853,1.329,1.858,1.72,3.018c0.393,1.158,0.589,2.419,0.589,3.778v0.364
					c0,1.371-0.196,2.636-0.589,3.795c-0.391,1.159-0.962,2.165-1.711,3.019c-0.75,0.854-1.673,1.519-2.768,1.997
					c-1.096,0.479-2.34,0.718-3.735,0.718c-1.406,0-2.661-0.239-3.761-0.718c-1.102-0.479-2.029-1.144-2.785-1.997
					c-0.755-0.854-1.328-1.859-1.721-3.019c-0.392-1.159-0.588-2.424-0.588-3.795V124.437z M210.954,124.801
					c0,0.783,0.075,1.519,0.225,2.204s0.387,1.286,0.71,1.799c0.322,0.514,0.74,0.92,1.254,1.219c0.512,0.3,1.133,0.449,1.858,0.449
					c0.703,0,1.309-0.149,1.816-0.449c0.507-0.299,0.919-0.705,1.236-1.219c0.316-0.513,0.55-1.113,0.7-1.799
					c0.149-0.686,0.225-1.421,0.225-2.204v-0.364c0-0.761-0.075-1.481-0.225-2.161c-0.15-0.681-0.384-1.28-0.7-1.799
					c-0.317-0.519-0.729-0.928-1.236-1.228c-0.508-0.3-1.125-0.449-1.852-0.449c-0.714,0-1.325,0.149-1.833,0.449
					c-0.507,0.3-0.922,0.709-1.244,1.228c-0.323,0.519-0.561,1.118-0.71,1.799c-0.149,0.68-0.225,1.4-0.225,2.161V124.801z"/>
				<path d="M236.448,131.337c-0.634,0.935-1.398,1.667-2.291,2.197c-0.894,0.529-1.871,0.795-2.932,0.795
					c-0.969,0-1.856-0.15-2.663-0.449c-0.808-0.3-1.5-0.775-2.075-1.428c-0.577-0.65-1.023-1.481-1.341-2.49
					c-0.316-1.009-0.476-2.223-0.476-3.64v-11.068h4.808v11.103c0,0.761,0.056,1.4,0.164,1.92c0.11,0.519,0.286,0.937,0.528,1.254
					c0.241,0.316,0.559,0.544,0.951,0.683c0.392,0.139,0.87,0.208,1.436,0.208c0.956,0,1.735-0.183,2.334-0.545
					c0.6-0.363,1.055-0.862,1.366-1.496v-13.126h4.825v18.712h-4.358L236.448,131.337z"/>
				<path d="M276.593,121.565h-16.359v-3.942h16.359V121.565z M276.593,129.02h-16.359v-3.926h16.359V129.02z"/>
				<path d="M294.306,121.565h-16.36v-3.942h16.36V121.565z M294.306,129.02h-16.36v-3.926h16.36V129.02z"/>
				<path d="M374.344,110.671v4.583h6.986v3.546h-6.986v8.041c0,0.68,0.078,1.248,0.234,1.703c0.154,0.456,0.376,0.818,0.665,1.09
					c0.288,0.271,0.637,0.464,1.046,0.579s0.867,0.173,1.375,0.173c0.369,0,0.746-0.018,1.133-0.052
					c0.386-0.034,0.755-0.077,1.107-0.13c0.352-0.052,0.68-0.106,0.984-0.164c0.307-0.058,0.568-0.115,0.787-0.173l0.468,3.303
					c-0.335,0.196-0.727,0.366-1.177,0.51c-0.449,0.146-0.928,0.263-1.436,0.355c-0.507,0.092-1.034,0.164-1.582,0.216
					c-0.547,0.052-1.087,0.078-1.617,0.078c-1.025,0-1.957-0.136-2.792-0.407c-0.836-0.27-1.552-0.69-2.145-1.262
					c-0.595-0.57-1.053-1.298-1.375-2.18c-0.323-0.882-0.484-1.938-0.484-3.173V118.8h-4.271v-3.546h4.271v-4.583H374.344z"/>
				<path d="M382.578,124.437c0-1.359,0.196-2.62,0.589-3.778c0.392-1.159,0.965-2.165,1.72-3.018
					c0.756-0.854,1.678-1.522,2.768-2.007c1.09-0.483,2.337-0.726,3.744-0.726c1.406,0,2.657,0.242,3.753,0.726
					c1.095,0.484,2.021,1.153,2.775,2.007c0.755,0.853,1.329,1.858,1.721,3.018c0.392,1.158,0.589,2.419,0.589,3.778v0.364
					c0,1.371-0.197,2.636-0.589,3.795s-0.962,2.165-1.712,3.019s-1.672,1.519-2.768,1.997c-1.095,0.479-2.34,0.718-3.734,0.718
					c-1.407,0-2.661-0.239-3.762-0.718c-1.102-0.479-2.029-1.144-2.785-1.997c-0.755-0.854-1.328-1.859-1.72-3.019
					c-0.393-1.159-0.589-2.424-0.589-3.795V124.437z M387.386,124.801c0,0.783,0.075,1.519,0.226,2.204
					c0.149,0.686,0.386,1.286,0.709,1.799c0.322,0.514,0.74,0.92,1.254,1.219c0.512,0.3,1.133,0.449,1.859,0.449
					c0.703,0,1.309-0.149,1.815-0.449c0.507-0.299,0.919-0.705,1.236-1.219c0.317-0.513,0.551-1.113,0.7-1.799
					c0.15-0.686,0.225-1.421,0.225-2.204v-0.364c0-0.761-0.074-1.481-0.225-2.161c-0.149-0.681-0.383-1.28-0.7-1.799
					s-0.729-0.928-1.236-1.228s-1.124-0.449-1.851-0.449c-0.715,0-1.326,0.149-1.834,0.449c-0.506,0.3-0.922,0.709-1.244,1.228
					c-0.323,0.519-0.56,1.118-0.709,1.799c-0.15,0.68-0.226,1.4-0.226,2.161V124.801z"/>
				<path d="M484.593,124.108c0,1.579-0.126,3.075-0.38,4.487s-0.6,2.73-1.037,3.952c-0.438,1.222-0.949,2.337-1.531,3.346
					c-0.582,1.01-1.202,1.908-1.859,2.698c-0.656,0.79-1.331,1.462-2.023,2.015c-0.691,0.554-1.365,0.974-2.022,1.263l-0.917-2.595
					c0.635-0.484,1.274-1.147,1.92-1.988c0.646-0.842,1.229-1.88,1.746-3.112c0.52-1.234,0.939-2.681,1.263-4.342
					c0.322-1.659,0.484-3.556,0.484-5.689v-0.449c0-2.121-0.167-4.012-0.501-5.673c-0.335-1.66-0.762-3.112-1.28-4.358
					c-0.519-1.244-1.099-2.287-1.738-3.13c-0.64-0.842-1.271-1.504-1.894-1.988l0.917-2.577c0.657,0.289,1.331,0.709,2.022,1.263
					c0.692,0.554,1.367,1.226,2.023,2.015c0.657,0.79,1.277,1.689,1.859,2.698s1.093,2.124,1.531,3.346
					c0.438,1.223,0.783,2.54,1.037,3.952c0.254,1.413,0.38,2.908,0.38,4.487V124.108z"/>
				<path d="M132.062,182.693c-0.761,0-1.452-0.115-2.075-0.347c-0.623-0.23-1.179-0.542-1.669-0.934
					c-0.49-0.393-0.911-0.854-1.263-1.384s-0.646-1.096-0.882-1.694c-0.236-0.6-0.409-1.214-0.519-1.842
					c-0.11-0.629-0.164-1.248-0.164-1.859v-2.818c0-1.534-0.357-2.635-1.072-3.303c-0.716-0.669-1.805-1.004-3.269-1.004v-3.459
					c1.464,0,2.553-0.334,3.269-1.003c0.715-0.668,1.072-1.781,1.072-3.337v-2.819c0-0.6,0.049-1.217,0.146-1.851
					s0.256-1.25,0.476-1.851c0.219-0.6,0.499-1.161,0.839-1.687c0.34-0.524,0.755-0.982,1.245-1.374
					c0.489-0.392,1.055-0.703,1.694-0.935c0.641-0.23,1.363-0.346,2.171-0.346l0.588,2.715c-0.703-0.022-1.245,0.124-1.626,0.441
					s-0.656,0.735-0.83,1.254c-0.172,0.52-0.273,1.099-0.303,1.738c-0.028,0.64-0.043,1.271-0.043,1.894v2.819
					c0,1.371-0.337,2.588-1.012,3.648s-1.721,1.868-3.139,2.422c1.43,0.553,2.479,1.354,3.147,2.403s1.003,2.26,1.003,3.632v2.818
					c0,0.623,0.037,1.254,0.113,1.895c0.074,0.64,0.215,1.219,0.423,1.737s0.493,0.937,0.856,1.254
					c0.362,0.316,0.833,0.464,1.409,0.441L132.062,182.693z"/>
				<path d="M121.547,518.123c0.564,0.022,1.029-0.124,1.393-0.441c0.363-0.316,0.648-0.734,0.855-1.254
					c0.207-0.519,0.352-1.098,0.433-1.737c0.081-0.641,0.121-1.271,0.121-1.895v-2.818c0-0.669,0.078-1.303,0.233-1.902
					c0.156-0.6,0.395-1.158,0.718-1.678c0.322-0.519,0.729-0.982,1.219-1.392s1.075-0.759,1.756-1.046
					c-1.349-0.577-2.341-1.401-2.975-2.474c-0.634-1.073-0.951-2.277-0.951-3.614v-2.818c0-0.623-0.015-1.255-0.044-1.895
					c-0.028-0.64-0.129-1.219-0.303-1.738c-0.173-0.519-0.449-0.937-0.83-1.253c-0.38-0.317-0.922-0.465-1.625-0.441l0.588-2.716
					c0.807,0,1.53,0.115,2.17,0.346c0.641,0.231,1.202,0.543,1.687,0.935c0.484,0.393,0.899,0.85,1.245,1.375
					c0.346,0.524,0.629,1.087,0.848,1.686c0.219,0.601,0.377,1.217,0.475,1.851c0.099,0.635,0.147,1.252,0.147,1.852v2.818
					c0,1.556,0.355,2.669,1.063,3.337c0.709,0.67,1.802,1.004,3.277,1.004v3.458c-1.476,0-2.568,0.335-3.277,1.004
					c-0.708,0.668-1.063,1.77-1.063,3.303v2.818c0,0.6-0.058,1.217-0.173,1.851c-0.115,0.635-0.287,1.251-0.519,1.851
					c-0.23,0.6-0.525,1.164-0.882,1.694c-0.357,0.531-0.778,0.992-1.263,1.384c-0.483,0.393-1.037,0.703-1.66,0.934
					c-0.622,0.231-1.313,0.347-2.075,0.347L121.547,518.123z"/>
			</g>
			<g>
				<path fill="none" stroke="#000000" stroke-width="5" stroke-miterlimit="10" d="M330.864,139.247l-2.51-2.283
					c-8.911-8.08-14.794-13.409-14.794-19.95c0-5.329,4.188-9.518,9.518-9.518c3.011,0,5.9,1.401,7.786,3.617
					c1.886-2.216,4.774-3.617,7.786-3.617c5.33,0,9.518,4.188,9.518,9.518c0,6.541-5.883,11.87-14.795,19.968L330.864,139.247z"/>
			</g>
			<g>
				<path d="M432.985,134.893l-11.521-11.521l11.521-11.521l-3.505-3.508l-15.027,15.028l15.027,15.027L432.985,134.893z
					 M446.014,134.893l11.52-11.521l-11.52-11.521l3.505-3.508l15.028,15.028l-15.028,15.027L446.014,134.893z"/>
			</g>
			<polygon fill="#333333" points="307.786,256.464 296.268,244.945 281.223,229.9 214.932,296.192 229.976,311.237 
				281.223,362.484 296.032,347.674 244.786,296.427 281.692,259.52 293.211,271.039 267.588,296.662 282.397,311.472 
				333.645,362.719 348.455,347.909 297.207,296.662 308.021,285.849 332.938,310.768 347.515,296.192 322.596,271.274 
				334.115,259.756 385.361,311.003 399.936,296.427 348.689,245.181 333.879,230.37 			"/>
			<g>
				<path d="M148.688,422.585h9.271v18.527c0,1.205-0.172,2.24-0.518,3.104s-0.848,1.579-1.507,2.143
					c-0.658,0.563-1.462,0.979-2.41,1.247s-2.03,0.401-3.247,0.401c-0.502,0-1.01-0.02-1.522-0.059
					c-0.514-0.039-1.004-0.114-1.473-0.226l0.233-3.783c0.134,0.034,0.32,0.064,0.562,0.092c0.239,0.028,0.485,0.051,0.736,0.067
					c0.251,0.018,0.49,0.028,0.72,0.033c0.229,0.006,0.398,0.009,0.51,0.009c0.446,0,0.867-0.051,1.264-0.15
					c0.396-0.101,0.736-0.268,1.021-0.503c0.284-0.233,0.511-0.543,0.678-0.929c0.168-0.384,0.251-0.867,0.251-1.447v-14.728h-4.568
					V422.585z M152.938,417.949c0-0.357,0.064-0.688,0.192-0.996c0.128-0.307,0.308-0.569,0.536-0.786
					c0.228-0.218,0.508-0.388,0.837-0.511c0.328-0.123,0.694-0.184,1.096-0.184c0.826,0,1.481,0.231,1.967,0.694
					s0.728,1.057,0.728,1.782c0,0.725-0.242,1.319-0.728,1.782s-1.141,0.695-1.967,0.695c-0.401,0-0.768-0.062-1.096-0.185
					c-0.329-0.123-0.609-0.293-0.837-0.511c-0.229-0.217-0.408-0.479-0.536-0.786S152.938,418.306,152.938,417.949z"/>
				<path d="M164.985,431.473c0-1.317,0.189-2.536,0.568-3.657c0.38-1.122,0.935-2.095,1.666-2.921
					c0.73-0.825,1.623-1.473,2.678-1.941c1.054-0.469,2.263-0.703,3.623-0.703c1.361,0,2.571,0.234,3.632,0.703
					s1.955,1.116,2.687,1.941c0.73,0.826,1.286,1.799,1.665,2.921c0.379,1.121,0.569,2.34,0.569,3.657v0.351
					c0,1.328-0.19,2.553-0.569,3.674c-0.379,1.122-0.932,2.095-1.656,2.921c-0.726,0.826-1.618,1.471-2.678,1.933
					c-1.061,0.463-2.266,0.695-3.615,0.695c-1.361,0-2.575-0.232-3.641-0.695c-1.066-0.462-1.964-1.106-2.694-1.933
					c-0.731-0.826-1.286-1.799-1.666-2.921c-0.379-1.121-0.568-2.346-0.568-3.674V431.473z M169.638,431.823
					c0,0.76,0.073,1.471,0.218,2.134c0.145,0.664,0.374,1.245,0.687,1.741s0.716,0.89,1.213,1.18c0.497,0.291,1.096,0.436,1.8,0.436
					c0.681,0,1.266-0.145,1.757-0.436c0.491-0.29,0.89-0.684,1.196-1.18s0.533-1.077,0.678-1.741
					c0.146-0.663,0.218-1.374,0.218-2.134v-0.351c0-0.736-0.072-1.434-0.218-2.093c-0.145-0.658-0.371-1.238-0.678-1.74
					s-0.705-0.898-1.196-1.188c-0.491-0.291-1.087-0.437-1.791-0.437c-0.691,0-1.283,0.146-1.773,0.437
					c-0.491,0.289-0.893,0.686-1.205,1.188s-0.542,1.082-0.687,1.74c-0.145,0.659-0.218,1.356-0.218,2.093V431.823z"/>
				<path d="M186.572,422.585h9.857v14.326h4.904v3.783h-14.762v-3.783h5.154v-10.526h-5.154V422.585z M191.392,417.949
					c0-0.357,0.065-0.688,0.193-0.996c0.128-0.307,0.31-0.569,0.543-0.786c0.235-0.218,0.517-0.388,0.846-0.511
					s0.694-0.184,1.096-0.184c0.826,0,1.481,0.231,1.968,0.694c0.484,0.463,0.728,1.057,0.728,1.782
					c0,0.725-0.243,1.319-0.728,1.782c-0.486,0.463-1.142,0.695-1.968,0.695c-0.401,0-0.767-0.062-1.096-0.185
					s-0.61-0.293-0.846-0.511c-0.233-0.217-0.415-0.479-0.543-0.786S191.392,418.306,191.392,417.949z"/>
				<path d="M209.265,422.585l0.284,2.511c0.646-0.904,1.434-1.604,2.359-2.101c0.927-0.496,1.953-0.745,3.08-0.745
					c0.915,0,1.752,0.134,2.511,0.402c0.759,0.268,1.414,0.694,1.967,1.28c0.552,0.585,0.981,1.339,1.288,2.259
					c0.307,0.921,0.46,2.04,0.46,3.356v11.146h-4.651v-11.08c0-0.714-0.082-1.302-0.243-1.766c-0.162-0.463-0.395-0.829-0.694-1.097
					c-0.303-0.268-0.664-0.454-1.089-0.561c-0.424-0.105-0.903-0.158-1.438-0.158c-0.793,0-1.468,0.158-2.025,0.477
					c-0.559,0.317-1.01,0.756-1.355,1.313v12.871h-4.67v-18.109H209.265z"/>
				<path d="M228.173,430.786c0-1.573,0.12-3.055,0.36-4.443c0.24-1.39,0.566-2.673,0.979-3.85c0.414-1.177,0.896-2.251,1.448-3.222
					c0.553-0.971,1.136-1.83,1.749-2.577c0.613-0.748,1.247-1.382,1.899-1.9c0.653-0.519,1.286-0.917,1.9-1.196l0.903,2.544
					c-0.625,0.479-1.25,1.124-1.875,1.934c-0.624,0.809-1.186,1.813-1.682,3.012c-0.496,1.2-0.901,2.598-1.213,4.192
					c-0.313,1.596-0.469,3.421-0.469,5.474v0.435c0,2.064,0.156,3.894,0.469,5.489c0.312,1.597,0.717,2.993,1.213,4.193
					c0.496,1.198,1.058,2.206,1.682,3.021c0.625,0.814,1.25,1.462,1.875,1.941l-0.903,2.511c-0.614-0.279-1.247-0.681-1.9-1.205
					c-0.652-0.524-1.286-1.158-1.899-1.9c-0.613-0.741-1.196-1.598-1.749-2.568c-0.552-0.971-1.034-2.044-1.448-3.222
					c-0.412-1.178-0.738-2.458-0.979-3.841c-0.24-1.384-0.36-2.868-0.36-4.452V430.786z"/>
				<path d="M247.568,420.812c0-0.569,0.077-1.158,0.234-1.766c0.156-0.608,0.373-1.203,0.652-1.783s0.602-1.127,0.971-1.64
					c0.367-0.514,0.77-0.966,1.205-1.355l2.143,1.321c-0.424,0.726-0.776,1.504-1.055,2.335c-0.279,0.831-0.418,1.788-0.418,2.87
					v2.963h-3.732V420.812z M253.274,420.812c0-0.569,0.079-1.158,0.235-1.766c0.156-0.608,0.374-1.203,0.652-1.783
					c0.279-0.58,0.603-1.127,0.971-1.64c0.368-0.514,0.77-0.966,1.205-1.355l2.143,1.321c-0.425,0.726-0.775,1.504-1.055,2.335
					s-0.418,1.788-0.418,2.87v2.963h-3.733V420.812z"/>
				<path d="M280.938,433.063c-0.078,1.228-0.344,2.332-0.795,3.313c-0.452,0.981-1.057,1.818-1.816,2.511
					c-0.759,0.691-1.662,1.225-2.711,1.598c-1.049,0.374-2.209,0.562-3.481,0.562c-1.439,0-2.717-0.266-3.832-0.796
					c-1.116-0.529-2.054-1.271-2.812-2.226c-0.76-0.954-1.339-2.101-1.74-3.439c-0.402-1.339-0.604-2.812-0.604-4.419v-3.28
					c0-1.617,0.212-3.096,0.636-4.435s1.026-2.487,1.808-3.447s1.727-1.704,2.837-2.234s2.357-0.796,3.741-0.796
					c1.338,0,2.529,0.19,3.572,0.57c1.043,0.379,1.934,0.92,2.67,1.623s1.316,1.563,1.741,2.577
					c0.423,1.015,0.691,2.159,0.804,3.432h-4.687c-0.046-0.726-0.154-1.362-0.327-1.909s-0.424-1.001-0.753-1.363
					s-0.742-0.637-1.238-0.82c-0.497-0.185-1.091-0.276-1.782-0.276c-0.727,0-1.356,0.157-1.893,0.469
					c-0.535,0.313-0.979,0.771-1.33,1.372c-0.351,0.603-0.611,1.343-0.777,2.218c-0.168,0.876-0.252,1.872-0.252,2.988v3.313
					c0,2.399,0.338,4.174,1.014,5.323c0.674,1.149,1.742,1.724,3.204,1.724c1.228,0,2.198-0.326,2.912-0.979
					c0.714-0.652,1.11-1.709,1.188-3.171H280.938z"/>
				<path d="M283.26,431.473c0-1.317,0.19-2.536,0.57-3.657c0.379-1.122,0.934-2.095,1.665-2.921
					c0.73-0.825,1.623-1.473,2.678-1.941c1.054-0.469,2.263-0.703,3.624-0.703c1.36,0,2.571,0.234,3.631,0.703
					c1.061,0.469,1.956,1.116,2.687,1.941c0.73,0.826,1.286,1.799,1.665,2.921c0.379,1.121,0.569,2.34,0.569,3.657v0.351
					c0,1.328-0.19,2.553-0.569,3.674c-0.379,1.122-0.932,2.095-1.657,2.921c-0.725,0.826-1.617,1.471-2.678,1.933
					c-1.06,0.463-2.265,0.695-3.615,0.695c-1.36,0-2.574-0.232-3.64-0.695c-1.065-0.462-1.964-1.106-2.694-1.933
					c-0.731-0.826-1.286-1.799-1.665-2.921c-0.38-1.121-0.57-2.346-0.57-3.674V431.473z M287.914,431.823
					c0,0.76,0.072,1.471,0.217,2.134c0.145,0.664,0.374,1.245,0.686,1.741c0.313,0.496,0.717,0.89,1.214,1.18
					c0.497,0.291,1.097,0.436,1.799,0.436c0.682,0,1.267-0.145,1.758-0.436c0.491-0.29,0.89-0.684,1.196-1.18
					s0.533-1.077,0.679-1.741c0.145-0.663,0.218-1.374,0.218-2.134v-0.351c0-0.736-0.073-1.434-0.218-2.093
					c-0.146-0.658-0.372-1.238-0.679-1.74s-0.705-0.898-1.196-1.188c-0.491-0.291-1.088-0.437-1.79-0.437
					c-0.692,0-1.284,0.146-1.775,0.437c-0.49,0.289-0.892,0.686-1.205,1.188c-0.312,0.502-0.541,1.082-0.686,1.74
					c-0.145,0.659-0.217,1.356-0.217,2.093V431.823z"/>
				<path d="M303.125,431.505c0-1.371,0.158-2.627,0.477-3.765c0.318-1.139,0.784-2.114,1.397-2.93
					c0.613-0.814,1.358-1.444,2.234-1.891s1.878-0.67,3.005-0.67c0.947,0,1.781,0.171,2.502,0.511
					c0.719,0.341,1.357,0.823,1.916,1.447v-9.221h4.669v25.707h-4.2l-0.235-1.892c-0.568,0.703-1.237,1.25-2.008,1.641
					c-0.77,0.39-1.662,0.585-2.679,0.585c-1.104,0-2.094-0.231-2.97-0.694s-1.618-1.102-2.226-1.916
					c-0.609-0.814-1.074-1.782-1.397-2.903c-0.324-1.122-0.485-2.341-0.485-3.657V431.505z M307.777,431.857
					c0,0.759,0.063,1.464,0.192,2.117c0.128,0.652,0.338,1.222,0.627,1.707c0.291,0.485,0.664,0.867,1.122,1.146
					c0.458,0.278,1.016,0.418,1.674,0.418c0.803,0,1.47-0.173,2-0.519c0.529-0.346,0.951-0.82,1.264-1.423v-7.33
					c-0.313-0.614-0.73-1.091-1.256-1.431c-0.524-0.341-1.182-0.511-1.975-0.511c-0.658,0-1.219,0.142-1.682,0.427
					c-0.464,0.284-0.84,0.675-1.13,1.171c-0.29,0.497-0.502,1.077-0.636,1.741c-0.135,0.663-0.201,1.375-0.201,2.133V431.857z"/>
				<path d="M332.109,441.028c-1.396,0-2.661-0.229-3.799-0.687c-1.139-0.457-2.115-1.079-2.93-1.865s-1.442-1.713-1.883-2.778
					s-0.661-2.206-0.661-3.422v-0.67c0-1.384,0.218-2.647,0.653-3.791c0.435-1.144,1.043-2.128,1.824-2.954
					c0.78-0.826,1.707-1.468,2.777-1.925c1.071-0.457,2.238-0.687,3.499-0.687c1.305,0,2.468,0.215,3.489,0.645
					c1.021,0.43,1.885,1.035,2.594,1.816s1.246,1.722,1.615,2.819c0.367,1.1,0.553,2.313,0.553,3.641v1.976h-12.285
					c0.09,0.613,0.271,1.174,0.544,1.681c0.273,0.509,0.622,0.946,1.046,1.314s0.91,0.652,1.456,0.854
					c0.547,0.2,1.144,0.302,1.791,0.302c0.457,0,0.912-0.045,1.364-0.134c0.451-0.09,0.885-0.221,1.297-0.395
					c0.412-0.172,0.798-0.387,1.155-0.645c0.356-0.256,0.669-0.557,0.937-0.902l2.326,2.51c-0.29,0.413-0.667,0.818-1.129,1.213
					c-0.463,0.396-1.011,0.748-1.641,1.056c-0.631,0.307-1.331,0.555-2.1,0.744C333.832,440.934,333.002,441.028,332.109,441.028z
					 M331.557,426.016c-0.524,0-1.005,0.093-1.439,0.276c-0.436,0.185-0.817,0.449-1.146,0.795
					c-0.329,0.347-0.605,0.759-0.828,1.239c-0.223,0.479-0.391,1.015-0.502,1.606h7.632v-0.369c-0.022-0.49-0.117-0.953-0.285-1.389
					c-0.167-0.435-0.407-0.812-0.719-1.129c-0.313-0.318-0.695-0.569-1.146-0.754C332.67,426.108,332.148,426.016,331.557,426.016z"
					/>
				<path d="M359.788,433.063c-0.078,1.228-0.343,2.332-0.795,3.313s-1.058,1.818-1.816,2.511c-0.759,0.691-1.662,1.225-2.711,1.598
					c-1.049,0.374-2.209,0.562-3.481,0.562c-1.439,0-2.717-0.266-3.833-0.796c-1.115-0.529-2.053-1.271-2.812-2.226
					c-0.758-0.954-1.339-2.101-1.74-3.439c-0.402-1.339-0.603-2.812-0.603-4.419v-3.28c0-1.617,0.212-3.096,0.637-4.435
					c0.423-1.339,1.025-2.487,1.808-3.447c0.78-0.96,1.726-1.704,2.836-2.234s2.357-0.796,3.74-0.796c1.34,0,2.53,0.19,3.573,0.57
					c1.044,0.379,1.933,0.92,2.67,1.623c0.736,0.703,1.317,1.563,1.74,2.577c0.425,1.015,0.692,2.159,0.804,3.432h-4.687
					c-0.044-0.726-0.153-1.362-0.326-1.909s-0.425-1.001-0.753-1.363c-0.329-0.362-0.742-0.637-1.238-0.82
					c-0.496-0.185-1.091-0.276-1.783-0.276c-0.725,0-1.354,0.157-1.891,0.469c-0.535,0.313-0.979,0.771-1.331,1.372
					c-0.351,0.603-0.61,1.343-0.778,2.218c-0.166,0.876-0.25,1.872-0.25,2.988v3.313c0,2.399,0.336,4.174,1.012,5.323
					s1.743,1.724,3.205,1.724c1.228,0,2.198-0.326,2.912-0.979c0.714-0.652,1.11-1.709,1.189-3.171H359.788z"/>
				<path d="M363.719,414.987h10.125v21.924h5.188v3.783h-15.313v-3.783h5.422v-18.126h-5.422V414.987z"/>
				<path d="M394.008,438.15c-0.613,0.903-1.354,1.612-2.217,2.125c-0.865,0.514-1.812,0.771-2.837,0.771
					c-0.938,0-1.797-0.146-2.578-0.436s-1.45-0.75-2.009-1.381c-0.558-0.63-0.99-1.434-1.297-2.41
					c-0.307-0.976-0.46-2.15-0.46-3.522v-10.712h4.653v10.745c0,0.736,0.053,1.356,0.158,1.857c0.105,0.503,0.276,0.907,0.511,1.214
					s0.541,0.526,0.92,0.66c0.38,0.134,0.843,0.201,1.39,0.201c0.926,0,1.68-0.175,2.26-0.527c0.58-0.351,1.021-0.834,1.322-1.447
					v-12.703h4.669v18.109h-4.218L394.008,438.15z"/>
				<path d="M418.491,431.823c0,1.351-0.148,2.589-0.444,3.716c-0.295,1.127-0.738,2.098-1.33,2.912s-1.328,1.448-2.209,1.899
					c-0.881,0.452-1.908,0.678-3.08,0.678c-1.06,0-1.978-0.198-2.753-0.594c-0.775-0.396-1.441-0.951-2-1.665l-0.217,1.925h-4.185
					v-25.707h4.653v9.238c0.535-0.625,1.168-1.11,1.899-1.456c0.73-0.347,1.587-0.52,2.568-0.52c1.183,0,2.218,0.229,3.104,0.687
					c0.888,0.457,1.626,1.094,2.218,1.908s1.035,1.788,1.33,2.92c0.296,1.133,0.444,2.369,0.444,3.708V431.823z M413.838,431.473
					c0-0.736-0.056-1.434-0.167-2.093c-0.111-0.658-0.305-1.235-0.577-1.731c-0.273-0.497-0.645-0.89-1.113-1.181
					c-0.469-0.29-1.055-0.435-1.758-0.435c-0.848,0-1.537,0.178-2.066,0.535c-0.53,0.357-0.94,0.848-1.229,1.473v7.213
					c0.289,0.625,0.699,1.116,1.229,1.474c0.529,0.356,1.23,0.535,2.101,0.535c0.702,0,1.282-0.137,1.74-0.409
					c0.458-0.273,0.823-0.653,1.097-1.139c0.272-0.485,0.466-1.06,0.577-1.724s0.167-1.387,0.167-2.168V431.473z"/>
				<path d="M429.734,417.48c0,0.568-0.077,1.158-0.234,1.766c-0.156,0.608-0.373,1.2-0.652,1.774s-0.603,1.121-0.971,1.641
					c-0.368,0.518-0.771,0.973-1.205,1.363l-2.125-1.322c0.424-0.725,0.771-1.507,1.046-2.343c0.273-0.837,0.41-1.797,0.41-2.879
					v-2.896h3.731V417.48z M435.743,417.48c0,0.568-0.078,1.158-0.233,1.766c-0.157,0.608-0.375,1.2-0.653,1.774
					c-0.279,0.574-0.603,1.121-0.971,1.641c-0.368,0.518-0.771,0.973-1.205,1.363l-2.126-1.322c0.424-0.725,0.772-1.507,1.046-2.343
					c0.273-0.837,0.41-1.797,0.41-2.879v-2.896h3.732V417.48z"/>
				<path d="M453.983,431.154c0,1.528-0.123,2.977-0.369,4.343c-0.245,1.367-0.58,2.643-1.004,3.824
					c-0.424,1.183-0.918,2.263-1.481,3.238c-0.563,0.977-1.162,1.847-1.799,2.611c-0.636,0.765-1.289,1.414-1.958,1.95
					c-0.67,0.535-1.323,0.942-1.958,1.222l-0.887-2.511c0.613-0.469,1.232-1.11,1.856-1.925c0.626-0.814,1.188-1.818,1.691-3.013
					c0.502-1.194,0.909-2.594,1.222-4.2s0.469-3.442,0.469-5.507v-0.435c0-2.053-0.162-3.883-0.486-5.49
					c-0.323-1.606-0.736-3.013-1.238-4.217c-0.502-1.205-1.063-2.215-1.682-3.029c-0.619-0.815-1.23-1.457-1.832-1.926l0.887-2.493
					c0.635,0.279,1.288,0.687,1.958,1.222c0.669,0.535,1.322,1.186,1.958,1.95c0.637,0.765,1.236,1.635,1.799,2.61
					c0.563,0.977,1.058,2.057,1.481,3.238c0.424,1.183,0.759,2.458,1.004,3.825c0.246,1.366,0.369,2.813,0.369,4.343V431.154z"/>
				<path d="M468.119,440.326c0,0.636-0.086,1.288-0.259,1.957c-0.173,0.67-0.41,1.317-0.712,1.941
					c-0.301,0.626-0.66,1.217-1.079,1.775c-0.418,0.558-0.867,1.054-1.347,1.489l-2.461-1.272c0.212-0.401,0.41-0.809,0.594-1.222
					c0.185-0.413,0.344-0.848,0.478-1.306c0.134-0.457,0.239-0.942,0.318-1.456c0.078-0.513,0.117-1.076,0.117-1.69v-3.915h4.368
					L468.119,440.326z M462.915,424.176c0-0.437,0.072-0.84,0.218-1.214c0.145-0.374,0.356-0.697,0.636-0.971
					c0.278-0.273,0.619-0.491,1.021-0.653c0.402-0.161,0.854-0.242,1.355-0.242s0.954,0.081,1.355,0.242
					c0.402,0.162,0.739,0.38,1.013,0.653s0.485,0.597,0.636,0.971c0.151,0.374,0.227,0.777,0.227,1.214
					c0,0.423-0.075,0.819-0.227,1.188c-0.15,0.368-0.362,0.688-0.636,0.962c-0.273,0.274-0.61,0.488-1.013,0.645
					c-0.401,0.157-0.854,0.234-1.355,0.234s-0.953-0.077-1.355-0.234c-0.401-0.156-0.742-0.37-1.021-0.645
					c-0.279-0.273-0.491-0.594-0.636-0.962C462.987,424.995,462.915,424.599,462.915,424.176z"/>
			</g>
		</g>
		<g>
			
				<line fill="none" stroke="#000000" stroke-linecap="round" stroke-miterlimit="10" x1="217.298" y1="77.109" x2="226.7" y2="67.707"/>
			
				<line fill="none" stroke="#000000" stroke-linecap="round" stroke-miterlimit="10" x1="227.036" y1="77.109" x2="217.634" y2="67.707"/>
		</g>
		<g>
			<rect x="83.31" y="65.594" fill="none" width="87.741" height="13.628"/>
			<path d="M83.954,73.824c0-2.283,1.526-3.586,3.277-3.586c0.896,0,1.513,0.364,1.989,0.798l-0.588,0.757
				c-0.393-0.351-0.813-0.603-1.359-0.603c-1.232,0-2.129,1.064-2.129,2.634c0,1.555,0.854,2.605,2.102,2.605
				c0.63,0,1.176-0.309,1.597-0.687l0.504,0.771c-0.616,0.546-1.387,0.868-2.199,0.868C85.341,77.382,83.954,76.079,83.954,73.824z"
				/>
			<path d="M90.086,76.443l0.574-0.771c0.588,0.477,1.19,0.813,2.003,0.813c0.896,0,1.345-0.477,1.345-1.064
				c0-0.7-0.813-1.009-1.555-1.289c-0.967-0.35-2.031-0.813-2.031-1.961c0-1.093,0.868-1.933,2.339-1.933
				c0.854,0,1.597,0.35,2.115,0.771l-0.546,0.729c-0.463-0.351-0.953-0.603-1.555-0.603c-0.854,0-1.247,0.462-1.247,0.98
				c0,0.645,0.742,0.883,1.513,1.177c0.98,0.364,2.073,0.771,2.073,2.059c0,1.106-0.883,2.031-2.493,2.031
				C91.654,77.382,90.729,76.976,90.086,76.443z"/>
			<path d="M101.022,77.662l0.056-1.232c-0.546,0.532-1.26,0.952-2.045,0.952c-1.709,0-2.815-1.288-2.815-3.558
				c0-2.213,1.401-3.586,2.956-3.586c0.784,0,1.33,0.28,1.946,0.813h0.028l0.112-0.645h0.925v9.679h-1.163V77.662z M101.022,75.477
				v-3.558c-0.574-0.519-1.093-0.714-1.653-0.714c-1.092,0-1.961,1.05-1.961,2.604c0,1.625,0.687,2.605,1.877,2.605
				C99.916,76.415,100.462,76.107,101.022,75.477z"/>
			<path d="M104.38,74.721v-4.314h1.162v4.16c0,1.274,0.379,1.821,1.275,1.821c0.7,0,1.19-0.351,1.835-1.148v-4.833h1.148v6.808
				h-0.953l-0.098-1.064h-0.042c-0.63,0.742-1.303,1.232-2.241,1.232C105.024,77.382,104.38,76.457,104.38,74.721z"/>
			<path d="M111.674,75.449c0-1.485,1.274-2.228,4.174-2.55c0-0.868-0.28-1.709-1.4-1.709c-0.784,0-1.499,0.364-2.031,0.729
				l-0.448-0.799c0.631-0.405,1.583-0.882,2.676-0.882c1.667,0,2.367,1.106,2.367,2.802v4.174h-0.953l-0.098-0.813h-0.042
				c-0.645,0.532-1.4,0.98-2.255,0.98C112.528,77.382,111.674,76.668,111.674,75.449z M115.848,75.547v-1.891
				c-2.269,0.28-3.054,0.84-3.054,1.709c0,0.771,0.532,1.092,1.205,1.092C114.657,76.457,115.189,76.136,115.848,75.547z"/>
			<path d="M119.149,70.406h0.953l0.098,1.232h0.042c0.462-0.854,1.163-1.4,1.933-1.4c0.295,0,0.505,0.042,0.729,0.14l-0.224,1.009
				c-0.225-0.07-0.378-0.112-0.658-0.112c-0.574,0-1.261,0.421-1.724,1.569v4.37h-1.148V70.406z"/>
			<path d="M123.363,73.824c0-2.228,1.499-3.586,3.054-3.586c1.736,0,2.717,1.246,2.717,3.193c0,0.238-0.014,0.49-0.042,0.658
				h-4.594c0.084,1.443,0.966,2.367,2.269,2.367c0.645,0,1.191-0.21,1.695-0.532l0.406,0.757c-0.589,0.378-1.316,0.7-2.241,0.7
				C124.806,77.382,123.363,76.051,123.363,73.824z M128.126,73.264c0-1.373-0.616-2.115-1.682-2.115
				c-0.952,0-1.82,0.771-1.961,2.115H128.126z"/>
			<path d="M130.32,73.824c0-2.213,1.401-3.586,2.956-3.586c0.784,0,1.303,0.294,1.904,0.784l-0.056-1.162v-2.62h1.163v9.974h-0.953
				l-0.098-0.799h-0.042c-0.532,0.519-1.261,0.967-2.06,0.967C131.427,77.382,130.32,76.094,130.32,73.824z M135.125,75.477v-3.558
				c-0.574-0.519-1.093-0.714-1.652-0.714c-1.093,0-1.962,1.05-1.962,2.604c0,1.625,0.687,2.605,1.877,2.605
				C134.019,76.415,134.564,76.107,135.125,75.477z"/>
			<path d="M138.342,76.514c0-0.532,0.379-0.896,0.841-0.896c0.448,0,0.826,0.364,0.826,0.896c0,0.504-0.378,0.868-0.826,0.868
				C138.721,77.382,138.342,77.018,138.342,76.514z"/>
			<path d="M141.408,73.824c0-2.283,1.526-3.586,3.277-3.586c0.896,0,1.513,0.364,1.989,0.798l-0.588,0.757
				c-0.393-0.351-0.813-0.603-1.359-0.603c-1.232,0-2.129,1.064-2.129,2.634c0,1.555,0.854,2.605,2.102,2.605
				c0.63,0,1.176-0.309,1.597-0.687l0.504,0.771c-0.616,0.546-1.387,0.868-2.199,0.868
				C142.795,77.382,141.408,76.079,141.408,73.824z"/>
			<path d="M148.296,75.841V67.24h1.148v8.685c0,0.364,0.154,0.505,0.322,0.505c0.07,0,0.126,0,0.252-0.028l0.154,0.868
				c-0.154,0.07-0.35,0.112-0.658,0.112C148.646,77.382,148.296,76.836,148.296,75.841z"/>
			<path d="M151.769,74.721v-4.314h1.162v4.16c0,1.274,0.379,1.821,1.275,1.821c0.7,0,1.19-0.351,1.835-1.148v-4.833h1.148v6.808
				h-0.953l-0.098-1.064h-0.042c-0.63,0.742-1.303,1.232-2.241,1.232C152.413,77.382,151.769,76.457,151.769,74.721z"/>
			<path d="M160.547,76.514h-0.042l-0.098,0.7h-0.925V67.24h1.148v2.718l-0.027,1.232c0.616-0.546,1.372-0.952,2.129-0.952
				c1.765,0,2.703,1.358,2.703,3.46c0,2.325-1.387,3.684-2.941,3.684C161.864,77.382,161.149,77.06,160.547,76.514z M164.245,73.712
				c0-1.499-0.504-2.507-1.793-2.507c-0.574,0-1.177,0.321-1.821,0.924v3.572c0.603,0.519,1.219,0.714,1.667,0.714
				C163.419,76.415,164.245,75.393,164.245,73.712z"/>
		</g>
		<rect x="262.275" y="447" width="157" height="2"/>
	</g>
	<g>
		<g>
			<path d="M100.398,733.86l2.104-3.351l-3.428-1.324l0.312-0.935l3.584,1.013l0.233-3.896h1.013l0.234,3.817l3.584-0.935
				l0.312,0.935l-3.428,1.324l2.104,3.351l-0.857,0.623l-2.415-3.194l-2.493,3.194L100.398,733.86z"/>
			<path d="M110.062,761.753l0.312-1.013c0.468,0.155,1.247,0.389,2.026,0.389c2.182,0,2.571-1.792,2.571-4.207v-22.438h1.168
				v22.595c0,3.584-1.246,5.142-3.817,5.142C111.542,762.22,110.607,761.986,110.062,761.753z M114.269,728.406
				c0-0.856,0.624-1.324,1.325-1.324s1.324,0.468,1.324,1.324c0,0.779-0.623,1.325-1.324,1.325S114.269,729.186,114.269,728.406z"/>
			<path d="M121.982,743.833c0-6.232,3.817-9.816,8.259-9.816c4.44,0,8.259,3.584,8.259,9.816c0,6.155-3.818,9.739-8.259,9.739
				C125.8,753.572,121.982,749.988,121.982,743.833z M137.253,743.833c0-5.143-3.038-8.726-7.012-8.726s-7.012,3.583-7.012,8.726
				s3.038,8.648,7.012,8.648S137.253,748.976,137.253,743.833z"/>
			<path d="M143.645,728.406c0-0.856,0.624-1.324,1.325-1.324s1.324,0.468,1.324,1.324c0,0.779-0.623,1.325-1.324,1.325
				S143.645,729.186,143.645,728.406z M144.346,734.483h1.169v18.621h-1.169V734.483z"/>
			<path d="M152.994,734.483h1.014l0.155,2.961h0.078c1.948-1.948,3.896-3.428,6.467-3.428c3.817,0,5.609,2.259,5.609,7.09v11.998
				h-1.169v-11.843c0-4.129-1.324-6.154-4.519-6.154c-2.337,0-4.052,1.246-6.467,3.739v14.258h-1.169V734.483z"/>
			<path d="M172.398,752.092c0-1.013,0.701-1.559,1.402-1.559s1.402,0.546,1.402,1.559c0,0.935-0.701,1.48-1.402,1.48
				S172.398,753.026,172.398,752.092z"/>
			<path d="M179.488,743.833c0-6.232,3.896-9.816,8.337-9.816c2.57,0,4.207,1.168,5.453,2.337l-0.778,0.857
				c-1.247-1.169-2.728-2.104-4.675-2.104c-3.974,0-7.09,3.583-7.09,8.726s2.805,8.648,7.09,8.648c2.104,0,3.896-1.013,5.22-2.26
				l0.701,0.857c-1.559,1.402-3.506,2.493-5.921,2.493C183.072,753.572,179.488,749.988,179.488,743.833z"/>
			<path d="M196.086,751.001l0.779-0.935c1.559,1.324,3.272,2.415,6.077,2.415c3.116,0,4.753-1.87,4.753-3.974
				c0-2.493-2.493-3.584-4.675-4.363c-2.883-1.013-6.077-2.104-6.077-5.298c0-2.571,2.025-4.83,5.843-4.83
				c1.87,0,3.818,0.778,5.143,1.869l-0.701,0.936c-1.247-0.936-2.571-1.714-4.519-1.714c-3.117,0-4.52,1.83-4.52,3.661
				c0,2.26,2.26,3.117,4.52,3.974c2.96,1.13,6.232,2.025,6.232,5.688c0,2.727-2.182,5.143-6.077,5.143
				C200.06,753.572,197.723,752.403,196.086,751.001z"/>
			<path d="M226.475,754.351l0.078-3.817c-1.715,1.637-3.818,3.039-6.39,3.039c-4.674,0-7.713-3.429-7.713-9.739
				c0-5.999,3.817-9.816,8.337-9.816c2.259,0,3.817,0.856,5.609,2.181h0.078l0.155-1.714h1.013v27.27h-1.168V754.351z
				 M226.475,749.209v-11.531c-2.104-1.869-3.818-2.57-5.766-2.57c-3.974,0-7.012,3.896-7.012,8.726
				c0,5.143,2.337,8.648,6.544,8.648C222.423,752.481,224.371,751.313,226.475,749.209z"/>
			<path d="M234.813,746.482v-11.999h1.169v11.843c0,4.129,1.324,6.155,4.519,6.155c2.338,0,4.052-1.247,6.389-4.052v-13.946h1.169
				v18.621h-1.013l-0.156-3.194h-0.077c-1.87,2.182-3.818,3.662-6.389,3.662C236.604,753.572,234.813,751.313,234.813,746.482z"/>
			<path d="M254.138,748.547c0-4.169,3.818-6.116,12.232-7.051c0.078-3.039-0.701-6.389-4.597-6.389
				c-2.649,0-4.908,1.324-6.077,2.259l-0.623-0.935c1.169-0.857,3.739-2.415,6.778-2.415c4.363,0,5.688,3.271,5.688,7.012v12.076
				h-1.013l-0.156-2.493h-0.078c-1.947,1.559-4.285,2.961-6.778,2.961C256.631,753.572,254.138,752.092,254.138,748.547z
				 M266.37,749.287v-6.778c-8.181,0.935-10.985,2.805-10.985,5.999c0,2.883,1.947,3.974,4.207,3.974
				S263.877,751.391,266.37,749.287z"/>
			<path d="M274.475,734.483h1.014l0.155,3.506h0.078c1.247-2.259,3.038-3.973,5.298-3.973c0.623,0,1.169,0.077,1.792,0.389
				l-0.312,1.091c-0.623-0.233-0.935-0.312-1.636-0.312c-1.715,0-3.74,1.325-5.221,4.986v12.934h-1.169V734.483z"/>
			<path d="M284.372,743.833c0-6.077,3.896-9.816,8.025-9.816c4.285,0,7.012,3.038,7.012,8.57c0,0.389,0,0.778-0.078,1.246h-13.712
				c0,4.986,2.883,8.648,7.323,8.648c2.104,0,3.74-0.701,5.143-1.714l0.545,1.013c-1.402,0.856-2.961,1.792-5.766,1.792
				C288.189,753.572,284.372,749.91,284.372,743.833z M298.24,742.742c0-5.142-2.337-7.635-5.843-7.635
				c-3.351,0-6.39,2.882-6.778,7.635H298.24z"/>
			<path d="M302.995,743.833c0-5.999,3.817-9.816,8.337-9.816c2.259,0,3.817,0.856,5.766,2.337l-0.078-3.506v-7.869h1.168v28.126
				h-1.013l-0.155-2.493h-0.078c-1.559,1.559-3.662,2.961-6.233,2.961C306.034,753.572,302.995,750.144,302.995,743.833z
				 M317.02,749.209v-11.531c-2.104-1.869-3.818-2.57-5.766-2.57c-3.974,0-7.012,3.896-7.012,8.726c0,5.143,2.337,8.648,6.544,8.648
				C312.968,752.481,314.916,751.313,317.02,749.209z"/>
			<path d="M324.58,752.092c0-1.013,0.701-1.559,1.402-1.559s1.402,0.546,1.402,1.559c0,0.935-0.701,1.48-1.402,1.48
				S324.58,753.026,324.58,752.092z"/>
			<path d="M331.671,743.833c0-6.232,3.896-9.816,8.337-9.816c2.57,0,4.207,1.168,5.453,2.337l-0.778,0.857
				c-1.247-1.169-2.728-2.104-4.675-2.104c-3.974,0-7.09,3.583-7.09,8.726s2.805,8.648,7.09,8.648c2.104,0,3.896-1.013,5.22-2.26
				l0.701,0.857c-1.559,1.402-3.506,2.493-5.921,2.493C335.255,753.572,331.671,749.988,331.671,743.833z"/>
			<path d="M350.684,751.079v-26.101h1.169v26.334c0,0.779,0.312,1.169,0.779,1.169c0.156,0,0.312,0,0.701-0.078l0.233,1.013
				c-0.312,0.078-0.545,0.156-1.013,0.156C351.386,753.572,350.684,752.871,350.684,751.079z"/>
			<path d="M359.333,746.482v-11.999h1.169v11.843c0,4.129,1.324,6.155,4.519,6.155c2.338,0,4.052-1.247,6.389-4.052v-13.946h1.169
				v18.621h-1.013l-0.156-3.194h-0.077c-1.87,2.182-3.818,3.662-6.389,3.662C361.125,753.572,359.333,751.313,359.333,746.482z"/>
			<path d="M381.307,751.234h-0.078l-0.155,1.87h-1.013v-28.126h1.168v8.337l-0.078,3.739c1.948-1.636,4.285-3.038,6.623-3.038
				c5.064,0,7.479,3.739,7.479,9.505c0,6.311-3.817,10.051-8.259,10.051C385.202,753.572,383.099,752.637,381.307,751.234z
				 M394.006,743.521c0-4.753-1.714-8.414-6.311-8.414c-1.947,0-4.129,1.168-6.467,3.271v11.531c2.182,1.87,4.363,2.571,5.844,2.571
				C391.123,752.481,394.006,748.741,394.006,743.521z"/>
			<path d="M399.931,733.86l2.104-3.351l-3.428-1.324l0.312-0.935l3.584,1.013l0.233-3.896h1.013l0.234,3.817l3.584-0.935
				l0.312,0.935l-3.429,1.324l2.104,3.351l-0.857,0.623l-2.415-3.194l-2.493,3.194L399.931,733.86z"/>
		</g>
		<g>
			<path d="M109.061,694.813c0-1.572,0.385-2.822,1.154-3.749c0.771-0.927,1.742-1.391,2.918-1.391s2.114,0.431,2.818,1.291
				c0.703,0.861,1.056,2.069,1.056,3.626c0,1.589-0.373,2.864-1.117,3.823c-0.745,0.961-1.723,1.44-2.931,1.44
				c-1.191,0-2.14-0.459-2.843-1.378C109.412,697.558,109.061,696.337,109.061,694.813z M110.625,694.591
				c0,1.308,0.211,2.305,0.633,2.992c0.423,0.687,1.031,1.03,1.825,1.03c0.745,0,1.324-0.318,1.738-0.956
				c0.414-0.637,0.621-1.609,0.621-2.918c0-2.549-0.812-3.824-2.434-3.824c-0.778,0-1.37,0.295-1.775,0.882
				C110.827,692.385,110.625,693.315,110.625,694.591z"/>
			<path d="M118.621,698.365h1.241v-7.201h-1.241v-1.242h2.657l0.074,1.391h0.05c0.314-0.529,0.662-0.919,1.043-1.167
				c0.38-0.248,0.835-0.372,1.365-0.372c0.199,0,0.373,0.017,0.521,0.05v1.563c-0.248-0.049-0.505-0.074-0.77-0.074
				c-0.48,0-0.898,0.112-1.254,0.335c-0.356,0.224-0.675,0.584-0.956,1.081v5.637h1.49v1.241h-4.222V698.365z"/>
			<path d="M125.076,698.638c0-0.397,0.112-0.716,0.336-0.956c0.224-0.239,0.525-0.359,0.906-0.359s0.683,0.12,0.906,0.359
				c0.224,0.24,0.335,0.526,0.335,0.857c0,0.414-0.116,0.736-0.348,0.968s-0.546,0.348-0.943,0.348
				c-0.364,0-0.654-0.116-0.869-0.348C125.184,699.275,125.076,698.985,125.076,698.638z"/>
			<path d="M129.546,698.638c0-0.397,0.112-0.716,0.336-0.956c0.224-0.239,0.525-0.359,0.906-0.359s0.683,0.12,0.906,0.359
				c0.224,0.24,0.335,0.526,0.335,0.857c0,0.414-0.116,0.736-0.348,0.968s-0.546,0.348-0.943,0.348
				c-0.364,0-0.654-0.116-0.869-0.348C129.653,699.275,129.546,698.985,129.546,698.638z"/>
			<path d="M134.016,698.638c0-0.397,0.112-0.716,0.336-0.956c0.224-0.239,0.525-0.359,0.906-0.359s0.683,0.12,0.906,0.359
				c0.224,0.24,0.335,0.526,0.335,0.857c0,0.414-0.116,0.736-0.348,0.968s-0.546,0.348-0.943,0.348
				c-0.364,0-0.654-0.116-0.869-0.348C134.123,699.275,134.016,698.985,134.016,698.638z"/>
		</g>
		<g>
			<path d="M120.62,653.309h-7.654v8.122h-2.362V643.04h11.292v1.996h-8.93v6.29h7.654V653.309z"/>
			<path d="M123.315,654.471c0-0.984,0.143-1.9,0.43-2.747c0.286-0.846,0.696-1.581,1.231-2.204
				c0.534-0.623,1.185-1.113,1.951-1.472c0.767-0.357,1.63-0.536,2.59-0.536c0.968,0,1.837,0.179,2.607,0.536
				c0.771,0.358,1.423,0.849,1.958,1.472s0.945,1.358,1.231,2.204c0.286,0.847,0.43,1.763,0.43,2.747v0.278
				c0,0.985-0.144,1.898-0.43,2.741c-0.286,0.842-0.696,1.574-1.231,2.197s-1.186,1.111-1.951,1.465
				c-0.767,0.354-1.63,0.531-2.59,0.531c-0.968,0-1.837-0.177-2.607-0.531c-0.771-0.354-1.424-0.842-1.958-1.465
				c-0.535-0.623-0.945-1.355-1.231-2.197c-0.287-0.843-0.43-1.756-0.43-2.741V654.471z M125.652,654.749
				c0,0.674,0.08,1.315,0.239,1.926c0.16,0.611,0.402,1.147,0.727,1.61c0.324,0.464,0.73,0.83,1.219,1.1s1.057,0.404,1.705,0.404
				c0.641,0,1.202-0.135,1.687-0.404s0.889-0.636,1.213-1.1c0.324-0.463,0.566-0.999,0.726-1.61c0.16-0.61,0.24-1.252,0.24-1.926
				v-0.278c0-0.665-0.082-1.303-0.246-1.913s-0.408-1.147-0.732-1.61s-0.729-0.832-1.213-1.105s-1.051-0.41-1.698-0.41
				c-0.649,0-1.213,0.137-1.693,0.41c-0.479,0.273-0.882,0.643-1.206,1.105s-0.566,1-0.727,1.61
				c-0.159,0.61-0.239,1.248-0.239,1.913V654.749z"/>
			<path d="M146.511,647.512c0.219,0,0.446,0.006,0.682,0.019s0.461,0.034,0.676,0.063s0.412,0.065,0.594,0.107
				c0.181,0.042,0.33,0.088,0.448,0.139l-0.315,2.286c-0.455-0.101-0.887-0.175-1.295-0.221c-0.408-0.047-0.836-0.069-1.282-0.069
				c-1.095,0-1.98,0.248-2.658,0.745c-0.679,0.497-1.177,1.191-1.497,2.084v8.766h-2.35v-13.667h2.224l0.113,2.173
				c0.556-0.749,1.223-1.341,2.002-1.774S145.517,647.512,146.511,647.512z"/>
			<path d="M167.286,643.04l2.993,9.195l3.234-9.195h2.904v18.391h-2.273v-7.339l0.189-7.68l-3.397,9.903h-1.339l-3.12-9.638
				l0.189,7.414v7.339h-2.273V643.04H167.286z"/>
			<path d="M177.648,654.471c0-0.984,0.143-1.9,0.43-2.747c0.286-0.846,0.696-1.581,1.231-2.204
				c0.534-0.623,1.185-1.113,1.951-1.472c0.767-0.357,1.63-0.536,2.59-0.536c0.968,0,1.837,0.179,2.607,0.536
				c0.771,0.358,1.423,0.849,1.958,1.472s0.945,1.358,1.231,2.204c0.286,0.847,0.43,1.763,0.43,2.747v0.278
				c0,0.985-0.144,1.898-0.43,2.741c-0.286,0.842-0.696,1.574-1.231,2.197s-1.186,1.111-1.951,1.465
				c-0.767,0.354-1.63,0.531-2.59,0.531c-0.968,0-1.837-0.177-2.607-0.531c-0.771-0.354-1.424-0.842-1.958-1.465
				c-0.535-0.623-0.945-1.355-1.231-2.197c-0.287-0.843-0.43-1.756-0.43-2.741V654.471z M179.985,654.749
				c0,0.674,0.08,1.315,0.239,1.926c0.16,0.611,0.402,1.147,0.727,1.61c0.324,0.464,0.73,0.83,1.219,1.1s1.057,0.404,1.705,0.404
				c0.641,0,1.202-0.135,1.687-0.404s0.889-0.636,1.213-1.1c0.324-0.463,0.566-0.999,0.726-1.61c0.16-0.61,0.24-1.252,0.24-1.926
				v-0.278c0-0.665-0.082-1.303-0.246-1.913s-0.408-1.147-0.732-1.61s-0.729-0.832-1.213-1.105s-1.051-0.41-1.698-0.41
				c-0.649,0-1.213,0.137-1.693,0.41c-0.479,0.273-0.882,0.643-1.206,1.105s-0.566,1-0.727,1.61
				c-0.159,0.61-0.239,1.248-0.239,1.913V654.749z"/>
			<path d="M200.844,647.512c0.219,0,0.446,0.006,0.682,0.019s0.461,0.034,0.676,0.063s0.412,0.065,0.594,0.107
				c0.181,0.042,0.33,0.088,0.448,0.139l-0.315,2.286c-0.455-0.101-0.887-0.175-1.295-0.221c-0.408-0.047-0.836-0.069-1.282-0.069
				c-1.095,0-1.98,0.248-2.658,0.745c-0.679,0.497-1.177,1.191-1.497,2.084v8.766h-2.35v-13.667h2.224l0.113,2.173
				c0.556-0.749,1.223-1.341,2.002-1.774S199.85,647.512,200.844,647.512z"/>
			<path d="M211.509,661.684c-0.96,0-1.842-0.164-2.646-0.493c-0.804-0.328-1.492-0.787-2.064-1.377
				c-0.573-0.589-1.02-1.288-1.339-2.097c-0.32-0.808-0.48-1.688-0.48-2.64v-0.53c0-1.104,0.177-2.091,0.53-2.962
				s0.823-1.608,1.408-2.21c0.586-0.603,1.251-1.063,1.996-1.384c0.745-0.319,1.51-0.479,2.293-0.479
				c0.984,0,1.846,0.17,2.583,0.512c0.736,0.341,1.349,0.813,1.837,1.414c0.488,0.603,0.853,1.312,1.093,2.129
				c0.24,0.816,0.36,1.7,0.36,2.652v1.048h-9.764c0.025,0.623,0.146,1.209,0.359,1.756c0.215,0.548,0.51,1.025,0.885,1.434
				c0.374,0.408,0.823,0.73,1.345,0.966c0.522,0.236,1.1,0.354,1.73,0.354c0.834,0,1.575-0.169,2.224-0.506
				c0.648-0.336,1.187-0.783,1.616-1.339l1.428,1.111c-0.228,0.346-0.512,0.676-0.853,0.992c-0.341,0.315-0.735,0.596-1.182,0.84
				s-0.951,0.44-1.516,0.587C212.789,661.609,212.174,661.684,211.509,661.684z M211.206,649.432c-0.472,0-0.918,0.086-1.339,0.259
				c-0.422,0.173-0.801,0.425-1.138,0.758c-0.336,0.333-0.621,0.741-0.853,1.225c-0.231,0.484-0.394,1.043-0.486,1.674h7.352v-0.177
				c-0.025-0.454-0.111-0.905-0.259-1.352s-0.364-0.846-0.65-1.199c-0.286-0.354-0.646-0.641-1.08-0.859
				S211.804,649.432,211.206,649.432z"/>
			<path d="M232.639,643.04h11.114v2.033h-4.408v14.337h4.408v2.021h-11.114v-2.021h4.307v-14.337h-4.307V643.04z"/>
			<path d="M248.318,647.764l0.164,2.021c0.496-0.707,1.106-1.261,1.831-1.661c0.725-0.399,1.532-0.604,2.425-0.612
				c0.716,0,1.366,0.101,1.952,0.303c0.585,0.202,1.084,0.518,1.496,0.947c0.413,0.43,0.73,0.975,0.954,1.636
				c0.223,0.661,0.335,1.446,0.335,2.355v8.678h-2.337v-8.627c0-0.606-0.067-1.12-0.202-1.541s-0.335-0.762-0.6-1.023
				c-0.266-0.261-0.59-0.45-0.973-0.568c-0.384-0.117-0.823-0.177-1.32-0.177c-0.783,0-1.472,0.196-2.065,0.588
				s-1.067,0.907-1.421,1.547v9.802h-2.336v-13.667H248.318z"/>
			<path d="M263.29,661.431v-11.86h-3.764v-1.807h3.764v-0.96c0-0.875,0.129-1.644,0.386-2.305s0.619-1.215,1.086-1.661
				c0.468-0.446,1.029-0.783,1.687-1.011c0.656-0.227,1.39-0.341,2.197-0.341c0.556,0,1.097,0.047,1.623,0.14
				s1.067,0.21,1.623,0.354l-0.277,1.933c-0.346-0.118-0.748-0.222-1.206-0.31c-0.459-0.089-0.95-0.133-1.472-0.133
				c-1.095,0.009-1.918,0.286-2.47,0.834c-0.552,0.547-0.827,1.381-0.827,2.5v0.96h5.267v1.807h-5.267v11.86H263.29z"/>
			<path d="M272.743,654.471c0-0.984,0.143-1.9,0.43-2.747c0.286-0.846,0.696-1.581,1.231-2.204
				c0.534-0.623,1.185-1.113,1.951-1.472c0.767-0.357,1.63-0.536,2.59-0.536c0.968,0,1.837,0.179,2.607,0.536
				c0.771,0.358,1.423,0.849,1.958,1.472s0.945,1.358,1.231,2.204c0.286,0.847,0.43,1.763,0.43,2.747v0.278
				c0,0.985-0.144,1.898-0.43,2.741c-0.286,0.842-0.696,1.574-1.231,2.197s-1.186,1.111-1.951,1.465
				c-0.767,0.354-1.63,0.531-2.59,0.531c-0.968,0-1.837-0.177-2.607-0.531c-0.771-0.354-1.424-0.842-1.958-1.465
				c-0.535-0.623-0.945-1.355-1.231-2.197c-0.287-0.843-0.43-1.756-0.43-2.741V654.471z M275.08,654.749
				c0,0.674,0.08,1.315,0.239,1.926c0.16,0.611,0.402,1.147,0.727,1.61c0.324,0.464,0.73,0.83,1.219,1.1s1.057,0.404,1.705,0.404
				c0.641,0,1.202-0.135,1.687-0.404s0.889-0.636,1.213-1.1c0.324-0.463,0.566-0.999,0.726-1.61c0.16-0.61,0.24-1.252,0.24-1.926
				v-0.278c0-0.665-0.082-1.303-0.246-1.913s-0.408-1.147-0.732-1.61s-0.729-0.832-1.213-1.105s-1.051-0.41-1.698-0.41
				c-0.649,0-1.213,0.137-1.693,0.41c-0.479,0.273-0.882,0.643-1.206,1.105s-0.566,1-0.727,1.61
				c-0.159,0.61-0.239,1.248-0.239,1.913V654.749z"/>
			<path d="M299.721,656.72c0-0.564,0.084-1.087,0.253-1.566c0.168-0.48,0.404-0.929,0.707-1.346
				c0.303-0.416,0.665-0.813,1.086-1.187c0.421-0.375,0.889-0.743,1.402-1.105c-0.564-0.767-1.013-1.49-1.346-2.173
				c-0.332-0.682-0.498-1.394-0.498-2.135c0-0.715,0.106-1.349,0.321-1.9s0.521-1.015,0.916-1.39s0.872-0.659,1.428-0.853
				s1.179-0.29,1.869-0.29c0.598,0,1.141,0.104,1.629,0.315c0.488,0.21,0.903,0.495,1.244,0.853c0.342,0.358,0.604,0.772,0.79,1.244
				c0.185,0.472,0.277,0.969,0.277,1.49c0,0.446-0.065,0.853-0.195,1.219c-0.131,0.366-0.312,0.71-0.543,1.029
				c-0.232,0.32-0.508,0.624-0.828,0.91c-0.319,0.286-0.665,0.568-1.035,0.846l-1.188,1.011l3.878,5.09
				c0.295-0.538,0.526-1.128,0.694-1.768c0.169-0.641,0.257-1.331,0.266-2.072h2.109c0,1.078-0.154,2.078-0.461,3
				c-0.308,0.922-0.756,1.754-1.346,2.495l2.286,2.993h-2.791l-1.049-1.39c-0.623,0.53-1.31,0.938-2.059,1.219
				c-0.749,0.282-1.537,0.424-2.362,0.424c-0.833,0-1.587-0.122-2.261-0.366s-1.246-0.586-1.718-1.023s-0.836-0.962-1.093-1.572
				S299.721,657.443,299.721,656.72z M305.177,659.789c0.599,0,1.175-0.109,1.73-0.329c0.556-0.219,1.074-0.53,1.554-0.935
				l-4.079-5.443l-0.354,0.303c-0.421,0.346-0.762,0.682-1.022,1.011c-0.262,0.328-0.461,0.638-0.601,0.928
				c-0.139,0.291-0.231,0.557-0.277,0.796c-0.047,0.24-0.069,0.44-0.069,0.601c0,0.429,0.067,0.829,0.202,1.199
				c0.134,0.371,0.332,0.695,0.594,0.973c0.261,0.278,0.585,0.497,0.972,0.657C304.213,659.709,304.663,659.789,305.177,659.789z
				 M303.674,647.183c0,0.472,0.105,0.954,0.316,1.446c0.21,0.493,0.505,1.013,0.884,1.561l1.478-1.175
				c0.261-0.177,0.476-0.362,0.645-0.556c0.168-0.193,0.299-0.39,0.392-0.588c0.093-0.197,0.158-0.397,0.195-0.6
				c0.038-0.202,0.058-0.399,0.058-0.594c0-0.253-0.04-0.499-0.12-0.739c-0.08-0.239-0.198-0.45-0.354-0.631
				c-0.156-0.182-0.344-0.329-0.563-0.442s-0.468-0.171-0.745-0.171c-0.362,0-0.681,0.068-0.954,0.202
				c-0.273,0.135-0.501,0.316-0.682,0.544c-0.182,0.227-0.318,0.49-0.41,0.789C303.721,646.528,303.674,646.847,303.674,647.183z"/>
			<path d="M337.357,656.782c0-0.563-0.128-1.04-0.385-1.427c-0.257-0.388-0.588-0.714-0.992-0.979
				c-0.403-0.265-0.848-0.486-1.332-0.663s-0.949-0.336-1.396-0.479c-0.648-0.211-1.308-0.463-1.978-0.758
				c-0.669-0.295-1.279-0.657-1.831-1.087c-0.552-0.429-1.002-0.937-1.352-1.521s-0.524-1.273-0.524-2.065
				c0-0.791,0.175-1.498,0.524-2.122c0.35-0.623,0.807-1.149,1.37-1.578c0.564-0.43,1.204-0.756,1.92-0.979
				c0.716-0.223,1.436-0.335,2.16-0.335c0.8,0,1.57,0.133,2.312,0.398c0.741,0.265,1.397,0.638,1.971,1.118
				c0.572,0.479,1.031,1.061,1.377,1.742c0.345,0.683,0.525,1.444,0.543,2.286h-2.4c-0.067-0.53-0.197-1.012-0.392-1.445
				c-0.193-0.434-0.45-0.807-0.771-1.118c-0.319-0.312-0.7-0.554-1.143-0.727c-0.442-0.172-0.941-0.259-1.497-0.259
				c-0.446,0-0.882,0.063-1.308,0.189c-0.425,0.126-0.804,0.315-1.137,0.568c-0.332,0.253-0.598,0.564-0.795,0.935
				c-0.198,0.371-0.297,0.8-0.297,1.288c0.008,0.531,0.143,0.979,0.404,1.346c0.261,0.366,0.591,0.676,0.991,0.929
				c0.399,0.252,0.833,0.463,1.301,0.631c0.468,0.169,0.907,0.316,1.32,0.442c0.454,0.144,0.913,0.306,1.376,0.486
				c0.464,0.181,0.91,0.39,1.339,0.625c0.43,0.236,0.83,0.501,1.2,0.796s0.695,0.63,0.973,1.004c0.278,0.375,0.495,0.788,0.65,1.238
				c0.156,0.45,0.233,0.949,0.233,1.496c0,0.826-0.183,1.546-0.549,2.16c-0.366,0.615-0.84,1.126-1.421,1.535
				c-0.581,0.408-1.238,0.716-1.971,0.922s-1.465,0.31-2.197,0.31c-0.817,0-1.617-0.127-2.4-0.379
				c-0.783-0.253-1.484-0.617-2.103-1.093c-0.619-0.476-1.123-1.057-1.51-1.743c-0.388-0.687-0.594-1.467-0.619-2.343h2.388
				c0.075,0.572,0.231,1.08,0.467,1.521c0.236,0.442,0.539,0.817,0.91,1.124c0.37,0.308,0.797,0.539,1.281,0.695
				c0.484,0.155,1.013,0.233,1.586,0.233c0.454,0,0.902-0.057,1.345-0.171c0.442-0.113,0.836-0.29,1.181-0.53
				c0.346-0.24,0.628-0.543,0.847-0.909S337.357,657.288,337.357,656.782z"/>
			<path d="M341.683,647.764h6.984v11.646h4.459v2.021h-11.443v-2.021h4.647v-9.612h-4.647V647.764z M346.027,644.177
				c0-0.387,0.115-0.714,0.348-0.979c0.231-0.266,0.583-0.398,1.055-0.398c0.463,0,0.813,0.133,1.048,0.398
				c0.235,0.265,0.354,0.592,0.354,0.979c0,0.379-0.118,0.695-0.354,0.947c-0.235,0.253-0.585,0.379-1.048,0.379
				c-0.472,0-0.823-0.126-1.055-0.379C346.143,644.872,346.027,644.556,346.027,644.177z"/>
			<path d="M354.471,654.483c0-1.019,0.124-1.955,0.372-2.811c0.249-0.854,0.608-1.589,1.08-2.203
				c0.472-0.615,1.044-1.095,1.718-1.44c0.674-0.345,1.436-0.518,2.286-0.518c0.842,0,1.581,0.149,2.217,0.448
				s1.177,0.73,1.623,1.295l0.114-1.491h2.121v13.377c0,0.9-0.141,1.7-0.423,2.399s-0.678,1.292-1.188,1.781
				c-0.509,0.488-1.117,0.858-1.825,1.111c-0.707,0.253-1.49,0.379-2.349,0.379c-0.354,0-0.758-0.04-1.213-0.12
				s-0.916-0.211-1.383-0.392c-0.468-0.181-0.918-0.423-1.352-0.727c-0.434-0.303-0.807-0.678-1.118-1.124l1.213-1.401
				c0.286,0.345,0.581,0.638,0.884,0.877c0.304,0.24,0.61,0.432,0.922,0.575c0.312,0.143,0.623,0.246,0.936,0.31
				c0.311,0.063,0.623,0.095,0.935,0.095c0.556,0,1.057-0.08,1.503-0.24s0.827-0.394,1.143-0.701
				c0.316-0.308,0.558-0.688,0.727-1.143c0.168-0.455,0.253-0.978,0.253-1.566v-1.175c-0.455,0.522-0.992,0.92-1.61,1.193
				c-0.619,0.273-1.337,0.411-2.154,0.411c-0.833,0-1.587-0.177-2.261-0.531c-0.674-0.354-1.244-0.842-1.711-1.465
				c-0.468-0.623-0.828-1.357-1.08-2.204c-0.253-0.846-0.379-1.758-0.379-2.734V654.483z M356.808,654.749
				c0,0.665,0.069,1.297,0.208,1.895s0.357,1.124,0.657,1.579c0.298,0.454,0.68,0.814,1.143,1.08
				c0.463,0.265,1.019,0.397,1.667,0.397c0.404,0,0.769-0.048,1.093-0.146c0.324-0.097,0.614-0.233,0.872-0.41
				c0.256-0.177,0.486-0.388,0.688-0.632c0.202-0.244,0.379-0.514,0.531-0.809v-6.265c-0.152-0.286-0.329-0.547-0.531-0.783
				c-0.201-0.235-0.434-0.439-0.694-0.612s-0.552-0.308-0.871-0.404c-0.32-0.097-0.674-0.146-1.062-0.146
				c-0.656,0-1.219,0.135-1.686,0.404c-0.468,0.27-0.852,0.634-1.149,1.093c-0.3,0.459-0.519,0.989-0.657,1.592
				c-0.139,0.602-0.208,1.235-0.208,1.9V654.749z"/>
			<path d="M370.58,647.764l0.164,2.021c0.496-0.707,1.106-1.261,1.831-1.661c0.725-0.399,1.532-0.604,2.425-0.612
				c0.716,0,1.366,0.101,1.952,0.303c0.585,0.202,1.084,0.518,1.496,0.947c0.413,0.43,0.73,0.975,0.954,1.636
				c0.223,0.661,0.335,1.446,0.335,2.355v8.678H377.4v-8.627c0-0.606-0.067-1.12-0.202-1.541s-0.335-0.762-0.6-1.023
				c-0.266-0.261-0.59-0.45-0.973-0.568c-0.384-0.117-0.823-0.177-1.32-0.177c-0.783,0-1.472,0.196-2.065,0.588
				s-1.067,0.907-1.421,1.547v9.802h-2.336v-13.667H370.58z"/>
			<path d="M392.284,654.345h-9.662v-1.92h9.662V654.345z"/>
			<path d="M404.528,659.549c-0.454,0.674-1.022,1.198-1.705,1.572c-0.682,0.375-1.47,0.563-2.362,0.563
				c-0.716,0-1.363-0.112-1.944-0.335s-1.078-0.57-1.491-1.042c-0.412-0.472-0.73-1.071-0.953-1.8
				c-0.224-0.729-0.335-1.603-0.335-2.621v-8.122h2.337v8.147c0,0.741,0.059,1.355,0.177,1.844s0.295,0.878,0.53,1.169
				c0.236,0.29,0.524,0.494,0.865,0.612s0.734,0.177,1.182,0.177c0.951,0,1.72-0.193,2.305-0.581
				c0.585-0.387,1.021-0.909,1.308-1.566v-9.802h2.349v13.667h-2.122L404.528,659.549z"/>
			<path d="M420.776,654.749c0,0.977-0.118,1.889-0.354,2.734c-0.235,0.847-0.581,1.581-1.036,2.204
				c-0.454,0.623-1.017,1.111-1.686,1.465c-0.67,0.354-1.434,0.531-2.293,0.531c-0.833,0-1.568-0.135-2.204-0.404
				s-1.181-0.657-1.636-1.162v6.568h-2.336v-18.922h2.134l0.114,1.491c0.454-0.564,1.004-0.996,1.648-1.295
				c0.644-0.299,1.391-0.448,2.241-0.448c0.876,0,1.65,0.173,2.324,0.518c0.674,0.346,1.238,0.825,1.692,1.44
				c0.455,0.614,0.801,1.349,1.036,2.203c0.235,0.855,0.354,1.792,0.354,2.811V654.749z M418.439,654.483
				c0-0.665-0.073-1.299-0.221-1.9c-0.147-0.603-0.375-1.133-0.682-1.592c-0.308-0.459-0.697-0.823-1.169-1.093
				s-1.035-0.404-1.692-0.404c-0.749,0-1.379,0.175-1.889,0.524c-0.509,0.35-0.915,0.798-1.219,1.346v6.58
				c0.304,0.539,0.708,0.979,1.213,1.32s1.146,0.512,1.92,0.512c0.648,0,1.208-0.137,1.68-0.411
				c0.472-0.273,0.859-0.642,1.162-1.104c0.304-0.464,0.528-0.998,0.676-1.604s0.221-1.242,0.221-1.907V654.483z"/>
			<path d="M431.91,657.806c0-0.278-0.055-0.528-0.164-0.752c-0.109-0.223-0.295-0.427-0.556-0.612
				c-0.262-0.185-0.606-0.355-1.036-0.512c-0.43-0.155-0.964-0.297-1.604-0.423c-0.783-0.16-1.497-0.354-2.142-0.581
				c-0.644-0.228-1.195-0.499-1.654-0.814c-0.459-0.316-0.814-0.687-1.067-1.111c-0.253-0.426-0.379-0.92-0.379-1.484
				c0-0.556,0.131-1.076,0.392-1.561c0.261-0.483,0.627-0.907,1.099-1.269c0.472-0.362,1.034-0.648,1.687-0.859
				c0.652-0.21,1.37-0.315,2.153-0.315c0.842,0,1.6,0.109,2.273,0.328s1.246,0.522,1.718,0.909c0.472,0.388,0.836,0.84,1.093,1.358
				c0.257,0.518,0.386,1.075,0.386,1.673h-2.337c0-0.294-0.076-0.583-0.228-0.865c-0.151-0.281-0.362-0.532-0.632-0.751
				s-0.596-0.396-0.979-0.53c-0.384-0.135-0.814-0.202-1.295-0.202c-0.497,0-0.933,0.055-1.308,0.164
				c-0.374,0.109-0.686,0.257-0.935,0.442c-0.248,0.185-0.436,0.399-0.562,0.644c-0.127,0.244-0.189,0.497-0.189,0.758
				c0,0.27,0.051,0.51,0.151,0.72c0.101,0.211,0.275,0.4,0.524,0.568c0.248,0.169,0.581,0.32,0.998,0.455
				c0.416,0.135,0.944,0.266,1.585,0.392c0.842,0.177,1.596,0.381,2.261,0.612c0.665,0.232,1.226,0.51,1.68,0.834
				c0.455,0.324,0.802,0.701,1.042,1.131c0.24,0.429,0.36,0.926,0.36,1.49c0,0.606-0.137,1.157-0.411,1.654
				c-0.273,0.497-0.654,0.922-1.143,1.275c-0.488,0.354-1.073,0.628-1.756,0.821c-0.682,0.193-1.427,0.291-2.235,0.291
				c-0.927,0-1.752-0.125-2.476-0.373c-0.725-0.248-1.337-0.576-1.838-0.985c-0.501-0.408-0.885-0.882-1.149-1.421
				c-0.266-0.539-0.398-1.099-0.398-1.68h2.337c0.034,0.479,0.162,0.884,0.386,1.213c0.223,0.328,0.501,0.594,0.833,0.795
				c0.333,0.202,0.701,0.346,1.105,0.43c0.404,0.085,0.804,0.127,1.2,0.127c0.985,0,1.764-0.182,2.337-0.544
				C431.611,658.884,431.901,658.403,431.91,657.806z"/>
			<path d="M440.353,660.205c0-0.403,0.12-0.74,0.36-1.01c0.239-0.27,0.6-0.404,1.079-0.404c0.48,0,0.845,0.135,1.093,0.404
				s0.373,0.606,0.373,1.01c0,0.388-0.125,0.712-0.373,0.973s-0.612,0.392-1.093,0.392c-0.479,0-0.84-0.131-1.079-0.392
				C440.473,660.917,440.353,660.593,440.353,660.205z M442.929,655.481h-2.349V643.04h2.349V655.481z"/>
		</g>
		<g>
			<path d="M109.311,599.312c0-8.719,5.999-13.678,12.558-13.678c3.439,0,6.239,1.6,8.079,3.439l-3.6,4.399
				c-1.28-1.12-2.56-1.92-4.319-1.92c-3.039,0-5.679,2.8-5.679,7.519c0,4.88,2.239,7.599,5.599,7.599c2,0,3.6-1.039,4.72-2.239
				l3.599,4.319c-2.199,2.56-5.199,3.839-8.559,3.839C115.069,612.589,109.311,608.19,109.311,599.312z"/>
			<path d="M133.311,605.07v-20.796h6.879v21.036c0,1.359,0.64,1.76,1.12,1.76c0.24,0,0.399,0,0.72-0.08l0.8,5.039
				c-0.72,0.32-1.84,0.56-3.359,0.56C134.831,612.589,133.311,609.55,133.311,605.07z"/>
			<path d="M145.069,604.431v-12.318h6.879v11.438c0,2.56,0.641,3.199,2,3.199c1.28,0,2-0.479,2.88-1.76v-12.878h6.879v19.997h-5.6
				l-0.479-2.64h-0.16c-1.6,1.92-3.439,3.119-6.159,3.119C146.909,612.589,145.069,609.39,145.069,604.431z"/>
			<path d="M174.429,609.95h-0.16l-0.56,2.159h-5.359v-27.835h6.879v6.479l-0.16,2.88c1.4-1.28,3.16-2,4.92-2
				c4.719,0,7.798,3.999,7.798,10.118c0,6.919-4.079,10.838-8.318,10.838C177.708,612.589,175.948,611.709,174.429,609.95z
				 M180.748,601.871c0-3.279-0.96-4.64-2.8-4.64c-1.04,0-1.84,0.4-2.72,1.44v7.358c0.8,0.72,1.68,0.96,2.56,0.96
				C179.388,606.99,180.748,605.71,180.748,601.871z"/>
			<path d="M200.109,586.113h9.838c5.6,0,10.398,1.92,10.398,8.399c0,3.719-1.68,6.158-4.199,7.519l5.639,10.078h-7.679
				l-4.479-8.719h-2.639v8.719h-6.879V586.113z M209.468,597.952c2.719,0,4.159-1.2,4.159-3.439c0-2.24-1.44-2.96-4.159-2.96h-2.479
				v6.399H209.468z"/>
			<path d="M224.588,604.431v-12.318h6.879v11.438c0,2.56,0.641,3.199,2,3.199c1.28,0,2-0.479,2.88-1.76v-12.878h6.879v19.997h-5.6
				l-0.479-2.64h-0.16c-1.6,1.92-3.439,3.119-6.159,3.119C226.428,612.589,224.588,609.39,224.588,604.431z"/>
			<path d="M246.268,609.79l3.04-4.239c1.839,1.359,3.479,1.999,4.879,1.999c1.439,0,2-0.399,2-1.199c0-1.04-1.84-1.52-3.84-2.32
				c-2.319-0.919-5.039-2.639-5.039-5.919c0-3.919,3.199-6.479,7.919-6.479c3.279,0,5.599,1.319,7.358,2.64l-3.039,4.079
				c-1.44-1.04-2.84-1.68-4.08-1.68c-1.159,0-1.76,0.32-1.76,1.12c0,1.04,1.76,1.439,3.76,2.159c2.399,0.88,5.119,2.399,5.119,5.999
				c0,3.76-2.959,6.639-8.559,6.639C251.467,612.589,248.348,611.47,246.268,609.79z"/>
			<path d="M265.947,584.274h6.879v6.479l-0.319,3.439c1.359-1.2,3.279-2.56,5.999-2.56c4.398,0,6.238,3.199,6.238,8.158v12.318
				h-6.879v-11.438c0-2.56-0.64-3.199-1.999-3.199c-1.28,0-2,0.561-3.04,1.52v13.118h-6.879V584.274z"/>
			<path d="M289.307,596.032c0-2.319,1.68-4.159,3.999-4.159c2.32,0,4,1.84,4,4.159s-1.68,4.159-4,4.159
				C290.986,600.191,289.307,598.352,289.307,596.032z M289.307,608.43c0-2.319,1.68-4.159,3.999-4.159c2.32,0,4,1.84,4,4.159
				c0,2.32-1.68,4.159-4,4.159C290.986,612.589,289.307,610.75,289.307,608.43z"/>
			<path d="M309.307,609.39l3.6-4.079c0.8,0.88,2.399,1.76,3.839,1.76c2.52,0,4.439-1.72,4.68-6.839
				c-1.24,1.64-3.399,2.52-4.76,2.52c-4.318,0-7.678-2.399-7.678-7.839c0-5.438,3.999-8.639,8.798-8.639
				c4.879,0,9.919,3.52,9.919,12.718c0,9.199-5.04,13.598-10.479,13.598C313.626,612.589,310.986,611.069,309.307,609.39z
				 M321.265,595.792c-0.56-3.56-2.079-4.399-3.319-4.399c-1.439,0-2.72,0.84-2.72,3.52c0,2.439,1.36,3.04,2.8,3.04
				C319.226,597.952,320.465,597.312,321.265,595.792z"/>
			<path d="M336.905,583.714h4.399l-7.039,34.795h-4.399L336.905,583.714z"/>
			<path d="M344.267,609.39l3.6-4.079c0.8,0.88,2.399,1.76,3.839,1.76c2.52,0,4.439-1.72,4.68-6.839
				c-1.24,1.64-3.399,2.52-4.759,2.52c-4.319,0-7.68-2.399-7.68-7.839c0-5.438,4-8.639,8.799-8.639c4.879,0,9.919,3.52,9.919,12.718
				c0,9.199-5.04,13.598-10.479,13.598C348.586,612.589,345.946,611.069,344.267,609.39z M356.225,595.792
				c-0.56-3.56-2.079-4.399-3.319-4.399c-1.439,0-2.72,0.84-2.72,3.52c0,2.439,1.36,3.04,2.8,3.04
				C354.185,597.952,355.425,597.312,356.225,595.792z"/>
			<path d="M373.146,605.07c0-3.639,2.119-5.719,4.6-7.238c-1-1.8-1.561-3.6-1.561-5.159c0-3.76,2.88-7.039,7.52-7.039
				c4.159,0,6.879,2.399,6.879,6.159c0,3.399-2.56,5.519-5.199,7.238c1.319,1.4,2.919,2.72,4.559,3.88c1.2-1.6,2.2-3.52,2.8-5.759
				h6.239c-0.92,3.039-2.28,5.879-4.239,8.519c1.56,0.76,3.079,1.239,4.319,1.399l-1.601,5.519c-2.279-0.399-4.639-1.279-6.958-2.52
				c-2.28,1.561-5.079,2.52-8.399,2.52C376.066,612.589,373.146,608.99,373.146,605.07z M385.544,606.75
				c-1.76-1.399-3.359-2.919-4.719-4.519c-0.72,0.76-1.2,1.52-1.2,2.439c0,1.6,1.28,2.72,3.359,2.72
				C383.824,607.391,384.664,607.15,385.544,606.75z M382.545,595.272c1.64-0.96,2.84-1.96,2.84-3.479c0-1.12-0.521-1.68-1.521-1.68
				c-1.079,0-2.039,0.88-2.039,2.56C381.825,593.473,382.065,594.353,382.545,595.272z"/>
			<path d="M409.466,609.39l3.6-4.079c0.8,0.88,2.399,1.76,3.839,1.76c2.52,0,4.439-1.72,4.68-6.839
				c-1.24,1.64-3.399,2.52-4.759,2.52c-4.319,0-7.68-2.399-7.68-7.839c0-5.438,4-8.639,8.799-8.639c4.879,0,9.919,3.52,9.919,12.718
				c0,9.199-5.04,13.598-10.479,13.598C413.785,612.589,411.146,611.069,409.466,609.39z M421.424,595.792
				c-0.56-3.56-2.079-4.399-3.319-4.399c-1.439,0-2.72,0.84-2.72,3.52c0,2.439,1.36,3.04,2.8,3.04
				C419.384,597.952,420.624,597.312,421.424,595.792z"/>
			<path d="M437.064,583.714h4.399l-7.039,34.795h-4.399L437.064,583.714z"/>
			<path d="M445.465,606.59h5.439v-13.117h-4.8v-4.239c2.88-0.561,4.72-1.28,6.639-2.479h5.039v19.836h4.56v5.52h-16.877V606.59z"/>
			<path d="M465.864,608.19c5.999-5.52,10.639-9.759,10.639-13.198c0-2.279-1.28-3.359-3.119-3.359c-1.681,0-2.96,1.2-4.16,2.399
				l-3.679-3.68c2.64-2.799,5.039-4.079,8.798-4.079c5.119,0,8.719,3.279,8.719,8.319c0,4.079-3.839,8.559-7.278,12.077
				c1.279-0.159,3.119-0.319,4.239-0.319h4.239v5.759h-18.397V608.19z"/>
		</g>
		<line fill="none" stroke="#000000" stroke-miterlimit="10" x1="74.775" y1="560" x2="74.775" y2="787"/>
	</g>
</g>
</svg>
