<?xml version="1.0" encoding="utf-8"?>
<!-- Generator: Adobe Illustrator 16.0.0, SVG Export Plug-In . SVG Version: 6.00 Build 0)  -->
<!DOCTYPE svg PUBLIC "-//W3C//DTD SVG 1.1//EN" "http://www.w3.org/Graphics/SVG/1.1/DTD/svg11.dtd">
<svg version="1.1" xmlns="http://www.w3.org/2000/svg" xmlns:xlink="http://www.w3.org/1999/xlink" x="0px" y="0px"
	 width="1190.551px" height="841.891px" viewBox="0 0 1190.551 841.891" enable-background="new 0 0 1190.551 841.891"
	 xml:space="preserve">
<g id="Bg">
	<rect x="-0.449" fill="#333333" width="1191" height="842"/>
</g>
<g id="LogoSet">
</g>
<g id="Posters">
	<polygon fill="#FFFFFF" points="362.515,334.063 337.543,309.091 304.926,276.474 161.209,420.192 193.824,452.809 304.926,563.91 
		337.032,531.802 225.933,420.7 305.944,340.687 330.916,365.661 275.366,421.211 307.473,453.317 418.574,564.419 450.684,532.313 
		339.579,421.211 363.024,397.768 417.044,451.791 448.645,420.192 394.621,366.171 419.595,341.199 530.694,452.301 562.291,420.7 
		451.191,309.601 419.082,277.492 	"/>
	<g id="CODECLUB_1_">
		<g>
			<path fill="#FFFFFF" d="M641.224,440.035v-30.17h10.133c1.644,0,3.139,0.166,4.486,0.497c1.347,0.332,2.496,0.836,3.45,1.513
				c0.953,0.678,1.688,1.533,2.206,2.569c0.519,1.036,0.777,2.259,0.777,3.668c-0.014,1.409-0.391,2.673-1.129,3.792
				c-0.739,1.119-1.827,1.969-3.264,2.549c0.87,0.221,1.623,0.553,2.258,0.994c0.636,0.442,1.164,0.964,1.586,1.564
				c0.421,0.602,0.731,1.258,0.932,1.969c0.2,0.712,0.301,1.447,0.301,2.207c0,1.45-0.248,2.729-0.746,3.833
				c-0.497,1.105-1.209,2.031-2.134,2.776c-0.926,0.746-2.052,1.306-3.378,1.679s-2.817,0.56-4.476,0.56H641.224z M647.067,422.526
				h4.33c1.616-0.014,2.859-0.353,3.73-1.016c0.87-0.663,1.312-1.637,1.326-2.922c0-1.409-0.436-2.421-1.306-3.035
				c-0.87-0.615-2.128-0.93-3.771-0.943h-4.31V422.526z M647.067,426.732v8.599h5.18c1.589-0.013,2.801-0.403,3.637-1.17
				s1.254-1.772,1.254-3.016c0.014-1.381-0.359-2.458-1.119-3.232c-0.76-0.773-1.935-1.167-3.522-1.181H647.067z"/>
			<path fill="#FFFFFF" d="M678.053,436.886c-0.76,1.119-1.675,1.996-2.745,2.632c-1.07,0.635-2.241,0.953-3.513,0.953
				c-1.16,0-2.224-0.18-3.19-0.539s-1.796-0.929-2.486-1.71c-0.691-0.78-1.227-1.774-1.606-2.983s-0.569-2.663-0.569-4.361v-13.262
				h5.76v13.303c0,0.912,0.065,1.679,0.197,2.3c0.131,0.622,0.342,1.123,0.632,1.503s0.67,0.652,1.14,0.818
				c0.47,0.165,1.043,0.248,1.72,0.248c1.146,0,2.079-0.218,2.798-0.652c0.718-0.436,1.264-1.032,1.637-1.793v-15.727h5.781v22.42
				h-5.222L678.053,436.886z"/>
			<path fill="#FFFFFF" d="M687.572,417.615h12.205v17.737h6.07v4.683h-18.275v-4.683h6.382v-13.034h-6.382V417.615z
				 M693.54,411.875c0-0.441,0.079-0.853,0.238-1.232c0.158-0.38,0.383-0.705,0.673-0.974c0.29-0.27,0.64-0.48,1.047-0.633
				c0.407-0.151,0.859-0.228,1.357-0.228c1.021,0,1.834,0.287,2.435,0.86s0.901,1.309,0.901,2.206c0,0.898-0.301,1.634-0.901,2.207
				s-1.413,0.86-2.435,0.86c-0.498,0-0.95-0.076-1.357-0.229c-0.407-0.151-0.757-0.362-1.047-0.632s-0.515-0.594-0.673-0.974
				C693.619,412.729,693.54,412.317,693.54,411.875z"/>
			<path fill="#FFFFFF" d="M709.523,408.208h12.537v27.145h6.423v4.683h-18.96v-4.683h6.714v-22.441h-6.714V408.208z"/>
			<path fill="#FFFFFF" d="M730.005,428.659c0-1.699,0.197-3.253,0.591-4.662s0.971-2.617,1.73-3.626s1.682-1.789,2.767-2.342
				c1.084-0.552,2.323-0.829,3.719-0.829c1.174,0,2.207,0.211,3.098,0.633c0.892,0.421,1.682,1.019,2.373,1.792v-11.417h5.781
				v31.827h-5.201l-0.29-2.342c-0.705,0.871-1.533,1.548-2.486,2.031s-2.059,0.725-3.315,0.725c-1.368,0-2.594-0.286-3.678-0.859
				c-1.085-0.573-2.004-1.364-2.756-2.373c-0.754-1.008-1.33-2.206-1.73-3.595c-0.401-1.389-0.602-2.897-0.602-4.527V428.659z
				 M735.766,429.095c0,0.939,0.079,1.813,0.238,2.621c0.159,0.808,0.418,1.513,0.777,2.113s0.821,1.074,1.388,1.42
				c0.566,0.345,1.257,0.518,2.072,0.518c0.995,0,1.82-0.214,2.477-0.643c0.656-0.428,1.178-1.015,1.564-1.761v-9.076
				c-0.387-0.76-0.905-1.35-1.555-1.771c-0.649-0.421-1.464-0.632-2.444-0.632c-0.815,0-1.51,0.176-2.083,0.528
				s-1.039,0.836-1.398,1.45c-0.359,0.615-0.621,1.333-0.787,2.155s-0.249,1.702-0.249,2.642V429.095z"/>
			<path fill="#FFFFFF" d="M758.712,436.699c0-0.539,0.09-1.039,0.27-1.502s0.442-0.863,0.787-1.202
				c0.346-0.339,0.767-0.607,1.265-0.809c0.497-0.2,1.057-0.3,1.678-0.3c0.622,0,1.182,0.1,1.679,0.3
				c0.497,0.201,0.915,0.47,1.254,0.809c0.338,0.339,0.601,0.739,0.787,1.202s0.279,0.963,0.279,1.502
				c0,0.525-0.093,1.016-0.279,1.471c-0.187,0.456-0.449,0.854-0.787,1.191c-0.339,0.339-0.757,0.604-1.254,0.798
				s-1.057,0.29-1.679,0.29c-0.621,0-1.181-0.097-1.678-0.29c-0.498-0.193-0.919-0.459-1.265-0.798
				c-0.345-0.338-0.607-0.735-0.787-1.191C758.802,437.715,758.712,437.225,758.712,436.699z"/>
			<path fill="#FFFFFF" d="M781.202,435.331h14.132v4.704h-19.975v-30.17h5.843V435.331z"/>
			<path fill="#FFFFFF" d="M808.334,440.449c-1.727,0-3.294-0.283-4.703-0.85c-1.409-0.565-2.618-1.336-3.626-2.31
				c-1.009-0.975-1.786-2.121-2.331-3.44c-0.546-1.318-0.819-2.731-0.819-4.237v-0.829c0-1.712,0.27-3.276,0.809-4.692
				s1.291-2.636,2.259-3.658c0.967-1.021,2.113-1.815,3.439-2.383c1.326-0.565,2.77-0.85,4.331-0.85c1.616,0,3.056,0.267,4.32,0.798
				c1.264,0.532,2.334,1.282,3.211,2.249c0.878,0.967,1.544,2.131,2,3.491s0.684,2.863,0.684,4.507v2.445h-15.209
				c0.11,0.76,0.335,1.453,0.674,2.082c0.338,0.629,0.77,1.171,1.295,1.627c0.524,0.455,1.126,0.808,1.803,1.057
				c0.677,0.248,1.416,0.373,2.217,0.373c0.566,0,1.13-0.056,1.688-0.166c0.56-0.11,1.095-0.272,1.606-0.487
				c0.511-0.214,0.987-0.479,1.43-0.798c0.441-0.317,0.829-0.69,1.16-1.118l2.88,3.107c-0.359,0.512-0.825,1.013-1.398,1.503
				s-1.25,0.926-2.03,1.305c-0.781,0.381-1.647,0.688-2.601,0.923C810.469,440.332,809.439,440.449,808.334,440.449z
				 M807.65,421.863c-0.649,0-1.243,0.113-1.782,0.342c-0.538,0.228-1.012,0.556-1.419,0.984c-0.407,0.428-0.75,0.939-1.025,1.533
				c-0.276,0.594-0.484,1.257-0.622,1.989h9.449v-0.456c-0.028-0.607-0.146-1.182-0.353-1.72c-0.207-0.539-0.505-1.005-0.891-1.399
				c-0.388-0.394-0.86-0.704-1.42-0.932C809.028,421.977,808.383,421.863,807.65,421.863z"/>
			<path fill="#FFFFFF" d="M833.746,440.035c-0.138-0.276-0.256-0.594-0.352-0.953c-0.097-0.359-0.18-0.739-0.249-1.14
				c-0.318,0.346-0.684,0.67-1.099,0.974c-0.414,0.305-0.873,0.57-1.378,0.798c-0.504,0.229-1.06,0.407-1.668,0.539
				c-0.607,0.131-1.264,0.196-1.968,0.196c-1.147,0-2.2-0.165-3.16-0.497c-0.961-0.331-1.786-0.794-2.477-1.388
				c-0.69-0.595-1.229-1.303-1.616-2.124c-0.387-0.822-0.58-1.717-0.58-2.684c0-2.362,0.881-4.189,2.642-5.48
				c1.762-1.292,4.39-1.938,7.885-1.938h3.212v-1.326c0-1.078-0.353-1.931-1.057-2.56c-0.705-0.628-1.72-0.942-3.046-0.942
				c-1.175,0-2.031,0.252-2.569,0.756c-0.539,0.505-0.809,1.178-0.809,2.021h-5.761c0-0.953,0.211-1.857,0.633-2.715
				c0.421-0.855,1.035-1.608,1.844-2.258c0.808-0.649,1.796-1.164,2.963-1.544s2.504-0.57,4.01-0.57
				c1.354,0,2.614,0.166,3.781,0.498c1.167,0.331,2.179,0.821,3.036,1.471c0.856,0.649,1.526,1.468,2.01,2.456
				c0.483,0.987,0.726,2.131,0.726,3.429v9.614c0,1.202,0.075,2.197,0.228,2.984c0.151,0.787,0.373,1.464,0.663,2.03v0.353H833.746z
				 M828.256,435.994c0.58,0,1.118-0.068,1.616-0.207c0.497-0.138,0.945-0.317,1.347-0.538c0.4-0.222,0.746-0.474,1.036-0.757
				s0.518-0.569,0.684-0.859v-3.854h-2.942c-0.898,0-1.665,0.086-2.3,0.259c-0.636,0.173-1.154,0.415-1.555,0.726
				s-0.697,0.684-0.891,1.119c-0.193,0.435-0.29,0.908-0.29,1.419c0,0.773,0.272,1.416,0.818,1.927
				C826.325,435.739,827.15,435.994,828.256,435.994z"/>
			<path fill="#FFFFFF" d="M858.122,417.2c0.871,0,1.675,0.06,2.414,0.177s1.337,0.245,1.793,0.383l-0.85,5.74
				c-0.76-0.18-1.537-0.314-2.331-0.404c-0.795-0.09-1.551-0.135-2.27-0.135c-1.616,0-2.911,0.311-3.885,0.933
				c-0.974,0.621-1.703,1.513-2.187,2.673v13.469h-5.76v-22.42h5.366l0.27,3.667c0.912-1.271,2.003-2.269,3.274-2.994
				C855.229,417.563,856.616,417.2,858.122,417.2z"/>
			<path fill="#FFFFFF" d="M869.528,417.615l0.353,3.108c0.801-1.119,1.774-1.986,2.921-2.601c1.146-0.615,2.418-0.923,3.813-0.923
				c1.133,0,2.169,0.166,3.108,0.498c0.939,0.331,1.751,0.859,2.435,1.585c0.685,0.726,1.216,1.657,1.596,2.797
				s0.57,2.525,0.57,4.155v13.8h-5.761v-13.718c0-0.884-0.101-1.612-0.301-2.186s-0.486-1.025-0.859-1.357
				c-0.373-0.331-0.822-0.563-1.347-0.694c-0.525-0.131-1.119-0.196-1.782-0.196c-0.981,0-1.816,0.196-2.508,0.59
				c-0.69,0.395-1.25,0.937-1.678,1.627v15.935h-5.781v-22.42H869.528z"/>
			<path fill="#FFFFFF" d="M892.412,436.699c0-0.539,0.09-1.039,0.27-1.502s0.442-0.863,0.787-1.202
				c0.346-0.339,0.767-0.607,1.265-0.809c0.497-0.2,1.057-0.3,1.678-0.3c0.622,0,1.182,0.1,1.679,0.3
				c0.497,0.201,0.915,0.47,1.254,0.809c0.338,0.339,0.601,0.739,0.787,1.202s0.279,0.963,0.279,1.502
				c0,0.525-0.093,1.016-0.279,1.471c-0.187,0.456-0.449,0.854-0.787,1.191c-0.339,0.339-0.757,0.604-1.254,0.798
				s-1.057,0.29-1.679,0.29c-0.621,0-1.181-0.097-1.678-0.29c-0.498-0.193-0.919-0.459-1.265-0.798
				c-0.345-0.338-0.607-0.735-0.787-1.191C892.502,437.715,892.412,437.225,892.412,436.699z"/>
			<path fill="#FFFFFF" d="M928.578,440.035h-5.76V426.96h-8.537v13.075H908.5v-30.17h5.781v12.37h8.537v-12.37h5.76V440.035z"/>
			<path fill="#FFFFFF" d="M945.163,440.035c-0.138-0.276-0.256-0.594-0.352-0.953c-0.097-0.359-0.18-0.739-0.249-1.14
				c-0.318,0.346-0.684,0.67-1.099,0.974c-0.414,0.305-0.873,0.57-1.378,0.798c-0.504,0.229-1.06,0.407-1.668,0.539
				c-0.607,0.131-1.264,0.196-1.968,0.196c-1.147,0-2.2-0.165-3.16-0.497c-0.961-0.331-1.786-0.794-2.477-1.388
				c-0.69-0.595-1.229-1.303-1.616-2.124c-0.387-0.822-0.58-1.717-0.58-2.684c0-2.362,0.881-4.189,2.642-5.48
				c1.762-1.292,4.39-1.938,7.885-1.938h3.212v-1.326c0-1.078-0.353-1.931-1.057-2.56c-0.705-0.628-1.72-0.942-3.046-0.942
				c-1.175,0-2.031,0.252-2.569,0.756c-0.539,0.505-0.809,1.178-0.809,2.021h-5.761c0-0.953,0.211-1.857,0.633-2.715
				c0.421-0.855,1.035-1.608,1.844-2.258c0.808-0.649,1.796-1.164,2.963-1.544s2.504-0.57,4.01-0.57
				c1.354,0,2.614,0.166,3.781,0.498c1.167,0.331,2.179,0.821,3.036,1.471c0.856,0.649,1.526,1.468,2.01,2.456
				c0.483,0.987,0.726,2.131,0.726,3.429v9.614c0,1.202,0.075,2.197,0.228,2.984c0.151,0.787,0.373,1.464,0.663,2.03v0.353H945.163z
				 M939.673,435.994c0.58,0,1.118-0.068,1.616-0.207c0.497-0.138,0.945-0.317,1.347-0.538c0.4-0.222,0.746-0.474,1.036-0.757
				s0.518-0.569,0.684-0.859v-3.854h-2.942c-0.898,0-1.665,0.086-2.3,0.259c-0.636,0.173-1.154,0.415-1.555,0.726
				s-0.697,0.684-0.891,1.119c-0.193,0.435-0.29,0.908-0.29,1.419c0,0.773,0.272,1.416,0.818,1.927
				C937.742,435.739,938.567,435.994,939.673,435.994z"/>
			<path fill="#FFFFFF" d="M963.364,435.85c0.566,0,1.105-0.083,1.616-0.249c0.512-0.165,0.96-0.4,1.348-0.704
				c0.386-0.304,0.687-0.67,0.901-1.099c0.214-0.428,0.307-0.904,0.279-1.43h5.429c0.027,1.16-0.211,2.238-0.715,3.232
				c-0.504,0.995-1.191,1.852-2.062,2.569c-0.87,0.719-1.883,1.282-3.036,1.689s-2.372,0.611-3.657,0.611
				c-1.74,0-3.267-0.294-4.579-0.881s-2.407-1.392-3.284-2.414s-1.54-2.221-1.989-3.596c-0.449-1.374-0.673-2.849-0.673-4.424
				v-0.621c0-1.575,0.221-3.05,0.663-4.424c0.441-1.375,1.104-2.573,1.988-3.596c0.885-1.021,1.979-1.83,3.285-2.424
				c1.305-0.594,2.821-0.892,4.548-0.892c1.381,0,2.659,0.208,3.833,0.622c1.175,0.414,2.187,0.998,3.036,1.751
				s1.509,1.665,1.979,2.735s0.69,2.269,0.663,3.595h-5.429c0.027-0.552-0.056-1.077-0.249-1.574
				c-0.193-0.498-0.477-0.926-0.85-1.285c-0.372-0.359-0.821-0.646-1.347-0.86c-0.525-0.214-1.098-0.32-1.72-0.32
				c-0.911,0-1.665,0.187-2.259,0.559c-0.594,0.373-1.066,0.871-1.419,1.492c-0.353,0.622-0.601,1.333-0.746,2.135
				c-0.146,0.801-0.218,1.63-0.218,2.486v0.621c0,0.871,0.069,1.71,0.207,2.518c0.139,0.809,0.384,1.521,0.736,2.135
				c0.352,0.614,0.828,1.108,1.43,1.481C961.676,435.663,962.438,435.85,963.364,435.85z"/>
			<path fill="#FFFFFF" d="M984.156,430.772l-2.611,2.425v6.838h-5.761v-31.827h5.761V426.4l1.74-1.989l6.196-6.796h6.921
				l-8.454,9.345l9.635,13.075h-7.065L984.156,430.772z"/>
			<path fill="#FFFFFF" d="M1003.829,436.699c0-0.539,0.09-1.039,0.27-1.502s0.442-0.863,0.787-1.202
				c0.346-0.339,0.767-0.607,1.265-0.809c0.497-0.2,1.057-0.3,1.678-0.3c0.622,0,1.182,0.1,1.679,0.3
				c0.497,0.201,0.915,0.47,1.254,0.809c0.338,0.339,0.601,0.739,0.787,1.202s0.279,0.963,0.279,1.502
				c0,0.525-0.093,1.016-0.279,1.471c-0.187,0.456-0.449,0.854-0.787,1.191c-0.339,0.339-0.757,0.604-1.254,0.798
				s-1.057,0.29-1.679,0.29c-0.621,0-1.181-0.097-1.678-0.29c-0.498-0.193-0.919-0.459-1.265-0.798
				c-0.345-0.338-0.607-0.735-0.787-1.191C1003.919,437.715,1003.829,437.225,1003.829,436.699z"/>
		</g>
		<g>
			<path fill="#FFFFFF" d="M699.053,559.57c1.721,0,3.238-0.49,4.555-1.47s1.975-2.342,1.975-4.085h2.301l0.043,0.131
				c0.072,2.169-0.797,3.984-2.604,5.445c-1.809,1.461-3.898,2.191-6.27,2.191c-3.197,0-5.666-1.096-7.41-3.287
				c-1.742-2.191-2.613-5.008-2.613-8.45v-0.911c0-3.414,0.875-6.22,2.625-8.418s4.209-3.298,7.377-3.298
				c2.574,0,4.717,0.76,6.432,2.278s2.541,3.515,2.484,5.987l-0.043,0.131h-2.322c0-1.881-0.633-3.381-1.898-4.502
				s-2.816-1.682-4.652-1.682c-2.518,0-4.381,0.899-5.588,2.698s-1.811,4.063-1.811,6.794v0.91c0,2.774,0.6,5.057,1.801,6.849
				C694.633,558.674,696.506,559.57,699.053,559.57z"/>
			<path fill="#FFFFFF" d="M727.43,555.35c0-1.097-0.453-2.057-1.355-2.879c-0.904-0.822-2.535-1.493-4.893-2.013
				c-2.807-0.607-4.879-1.41-6.217-2.408s-2.006-2.408-2.006-4.23c0-1.794,0.756-3.309,2.268-4.546
				c1.51-1.236,3.51-1.854,5.998-1.854c2.646,0,4.744,0.654,6.291,1.964c1.549,1.309,2.285,2.946,2.213,4.913l-0.043,0.131h-2.408
				c0-1.287-0.547-2.408-1.639-3.363c-1.092-0.954-2.563-1.432-4.414-1.432c-1.895,0-3.316,0.407-4.264,1.22
				c-0.947,0.813-1.42,1.767-1.42,2.86c0,1.079,0.408,1.972,1.225,2.677s2.449,1.324,4.893,1.856
				c2.791,0.624,4.881,1.477,6.27,2.558s2.084,2.55,2.084,4.407c0,1.959-0.793,3.544-2.377,4.756
				c-1.584,1.211-3.676,1.817-6.279,1.817c-2.85,0-5.088-0.68-6.715-2.04c-1.627-1.359-2.398-2.979-2.311-4.859l0.043-0.13h2.387
				c0.1,1.685,0.791,2.908,2.072,3.671c1.279,0.764,2.787,1.146,4.523,1.146c1.879,0,3.361-0.412,4.447-1.234
				C726.887,557.514,727.43,556.519,727.43,555.35z"/>
			<path fill="#FFFFFF" d="M734.979,549.785c0-3.746,0.793-6.743,2.377-8.992c1.582-2.249,3.793-3.374,6.627-3.374
				c1.605,0,3.012,0.336,4.221,1.009c1.207,0.673,2.201,1.631,2.982,2.875l0.26-3.45h2.256v32.5h-2.58v-12.106
				c-0.797,1.143-1.795,2.018-2.994,2.625c-1.201,0.608-2.598,0.912-4.188,0.912c-2.807,0-5.002-1.045-6.584-3.136
				c-1.584-2.09-2.377-4.892-2.377-8.406V549.785z M737.582,550.229c0,2.832,0.568,5.097,1.703,6.794s2.846,2.547,5.131,2.547
				c1.619,0,2.984-0.365,4.09-1.095c1.107-0.729,1.979-1.723,2.615-2.98V544.01c-0.594-1.286-1.436-2.337-2.529-3.153
				c-1.092-0.816-2.469-1.225-4.133-1.225c-2.285,0-4.002,0.942-5.152,2.828c-1.148,1.886-1.725,4.323-1.725,7.314V550.229z"/>
			<path fill="#FFFFFF" d="M776.113,557.487c-0.752,1.374-1.764,2.434-3.037,3.178c-1.271,0.745-2.777,1.118-4.512,1.118
				c-2.475,0-4.412-0.839-5.814-2.518c-1.404-1.677-2.105-4.28-2.105-7.81v-13.604h2.604v13.674c0,2.87,0.488,4.928,1.465,6.174
				s2.361,1.87,4.154,1.87c1.967,0,3.537-0.442,4.709-1.326c1.172-0.885,1.988-2.102,2.451-3.652v-16.739h2.604v23.475h-2.301
				L776.113,557.487z"/>
			<path fill="#FFFFFF" d="M800.326,561.327c-0.174-0.795-0.297-1.482-0.369-2.062c-0.072-0.578-0.109-1.164-0.109-1.757
				c-0.867,1.229-2.023,2.249-3.471,3.059c-1.445,0.811-3.074,1.216-4.881,1.216c-2.285,0-4.061-0.608-5.326-1.823
				s-1.898-2.842-1.898-4.881c0-2.17,0.936-3.905,2.809-5.207s4.4-1.952,7.584-1.952h5.184v-2.907c0-1.678-0.539-2.994-1.615-3.949
				c-1.078-0.954-2.586-1.432-4.523-1.432c-1.809,0-3.309,0.456-4.502,1.367s-1.789,2.024-1.789,3.341l-2.387-0.021l-0.045-0.131
				c-0.086-1.749,0.713-3.315,2.398-4.696c1.684-1.382,3.828-2.072,6.432-2.072c2.59,0,4.672,0.658,6.248,1.975
				c1.578,1.316,2.365,3.203,2.365,5.662v11.542c0,0.824,0.047,1.627,0.141,2.408c0.096,0.781,0.25,1.555,0.467,2.321H800.326z
				 M791.799,559.483c1.867,0,3.516-0.438,4.947-1.313s2.465-1.992,3.102-3.353v-4.903h-5.229c-2.357,0-4.24,0.503-5.65,1.508
				c-1.41,1.006-2.115,2.253-2.115,3.743c0,1.272,0.438,2.311,1.313,3.113S790.252,559.483,791.799,559.483z"/>
			<path fill="#FFFFFF" d="M820.156,540.088l-1.932-0.131c-1.635,0-2.977,0.46-4.025,1.378c-1.049,0.919-1.797,2.181-2.244,3.786
				v16.206h-2.604v-23.475h2.277l0.326,3.905v0.261c0.68-1.446,1.59-2.574,2.732-3.385c1.143-0.81,2.502-1.215,4.08-1.215
				c0.332,0,0.654,0.025,0.965,0.076s0.568,0.104,0.77,0.162L820.156,540.088z"/>
			<path fill="#FFFFFF" d="M832.869,561.783c-2.938,0-5.377-1.085-7.322-3.255c-1.945-2.169-2.918-4.917-2.918-8.244v-1.193
				c0-3.355,0.965-6.14,2.896-8.353c1.93-2.213,4.27-3.319,7.018-3.319c2.879,0,5.143,0.911,6.791,2.733s2.473,4.253,2.473,7.29
				v2.213h-16.574v0.628c0,2.641,0.701,4.849,2.104,6.624s3.246,2.663,5.533,2.663c1.619,0,3-0.225,4.143-0.673
				s2.119-1.092,2.93-1.931l1.105,1.778c-0.881,0.93-1.998,1.668-3.352,2.216C836.344,561.509,834.734,561.783,832.869,561.783z
				 M832.543,539.632c-1.924,0-3.537,0.732-4.838,2.196c-1.303,1.464-2.061,3.299-2.277,5.506l0.043,0.108h13.754v-0.649
				c0-2.033-0.6-3.735-1.801-5.105C836.225,540.317,834.596,539.632,832.543,539.632z"/>
			<path fill="#FFFFFF" d="M845.93,549.785c0-3.746,0.791-6.743,2.375-8.992s3.793-3.374,6.629-3.374
				c1.633,0,3.051,0.347,4.252,1.041c1.199,0.694,2.197,1.679,2.994,2.951v-13.929h2.58v33.845h-2.299l-0.217-3.406
				c-0.781,1.244-1.787,2.199-3.016,2.864c-1.23,0.665-2.676,0.998-4.34,0.998c-2.805,0-5-1.045-6.584-3.136
				c-1.584-2.09-2.375-4.892-2.375-8.406V549.785z M848.533,550.243c0,2.848,0.566,5.114,1.703,6.799
				c1.135,1.686,2.846,2.528,5.131,2.528c1.678,0,3.076-0.378,4.197-1.134c1.121-0.755,1.992-1.801,2.615-3.138v-11.069
				c-0.594-1.365-1.434-2.473-2.518-3.322c-1.084-0.851-2.502-1.275-4.252-1.275c-2.285,0-4.002,0.94-5.152,2.821
				c-1.15,1.882-1.725,4.326-1.725,7.333V550.243z"/>
			<path fill="#FFFFFF" d="M874.85,561.327h-2.973v-3.558h2.973V561.327z"/>
			<path fill="#FFFFFF" d="M890.99,559.57c1.721,0,3.24-0.49,4.557-1.47s1.975-2.342,1.975-4.085h2.299l0.043,0.131
				c0.072,2.169-0.795,3.984-2.604,5.445c-1.807,1.461-3.896,2.191-6.27,2.191c-3.197,0-5.666-1.096-7.408-3.287
				c-1.744-2.191-2.615-5.008-2.615-8.45v-0.911c0-3.414,0.875-6.22,2.625-8.418s4.209-3.298,7.377-3.298
				c2.574,0,4.719,0.76,6.434,2.278c1.713,1.519,2.541,3.515,2.482,5.987l-0.043,0.131h-2.32c0-1.881-0.633-3.381-1.898-4.502
				s-2.818-1.682-4.654-1.682c-2.518,0-4.379,0.899-5.586,2.698c-1.209,1.799-1.813,4.063-1.813,6.794v0.91
				c0,2.774,0.6,5.057,1.801,6.849C886.572,558.674,888.445,559.57,890.99,559.57z"/>
			<path fill="#FFFFFF" d="M908.217,561.327h-2.582v-33.845h2.582V561.327z"/>
			<path fill="#FFFFFF" d="M930.779,557.487c-0.752,1.374-1.766,2.434-3.037,3.178c-1.273,0.745-2.777,1.118-4.514,1.118
				c-2.473,0-4.41-0.839-5.814-2.518c-1.402-1.677-2.104-4.28-2.104-7.81v-13.604h2.604v13.674c0,2.87,0.488,4.928,1.465,6.174
				c0.975,1.246,2.359,1.87,4.154,1.87c1.967,0,3.535-0.442,4.707-1.326c1.172-0.885,1.988-2.102,2.451-3.652v-16.739h2.604v23.475
				h-2.299L930.779,557.487z"/>
			<path fill="#FFFFFF" d="M959.047,550.241c0,3.515-0.795,6.316-2.385,8.406c-1.592,2.091-3.783,3.136-6.574,3.136
				c-1.721,0-3.203-0.344-4.447-1.031c-1.244-0.687-2.25-1.674-3.016-2.961l-0.283,3.536h-2.234v-33.845h2.604v14.059
				c0.781-1.316,1.779-2.332,2.994-3.048s2.662-1.074,4.34-1.074c2.82,0,5.025,1.125,6.617,3.374
				c1.59,2.249,2.385,5.246,2.385,8.992V550.241z M956.422,549.786c0-3.007-0.578-5.451-1.734-7.333
				c-1.158-1.881-2.871-2.821-5.143-2.821c-1.809,0-3.266,0.45-4.371,1.352c-1.107,0.9-1.928,2.056-2.463,3.464v10.655
				c0.578,1.366,1.443,2.452,2.594,3.258c1.148,0.807,2.578,1.21,4.283,1.21c2.271,0,3.979-0.843,5.121-2.528
				c1.143-1.685,1.713-3.951,1.713-6.799V549.786z"/>
		</g>
		<g>
			<path fill="#FFFFFF" d="M655.8,317.234l0.082,0.245c-0.272,6.972-2.335,12.295-6.188,15.971
				c-3.854,3.676-9.442,5.514-16.767,5.514c-7.353,0-13.33-2.26-17.932-6.78c-4.602-4.52-6.902-10.388-6.902-17.604v-12.417
				c0-7.188,2.212-13.05,6.638-17.584c4.424-4.533,10.176-6.8,17.257-6.8c7.515,0,13.26,1.893,17.236,5.677
				c3.975,3.785,6.222,9.163,6.739,16.134l-0.082,0.245h-13.438c-0.191-3.866-1.056-6.739-2.594-8.618
				c-1.539-1.879-4.16-2.818-7.862-2.818c-3.132,0-5.596,1.26-7.394,3.778c-1.797,2.519-2.695,5.82-2.695,9.904v12.499
				c0,4.111,0.98,7.434,2.94,9.966c1.961,2.532,4.656,3.799,8.088,3.799c3.321,0,5.677-0.885,7.065-2.655
				c1.389-1.77,2.179-4.588,2.369-8.455H655.8z"/>
			<path fill="#FFFFFF" d="M712.411,313.723c0,7.325-2.321,13.362-6.964,18.114s-10.708,7.127-18.196,7.127
				c-7.543,0-13.656-2.375-18.339-7.127c-4.684-4.752-7.025-10.789-7.025-18.114v-10.702c0-7.297,2.334-13.328,7.005-18.094
				c4.67-4.765,10.763-7.147,18.277-7.147c7.461,0,13.533,2.383,18.217,7.147c4.684,4.766,7.025,10.797,7.025,18.094V313.723z
				 M698.646,302.939c0-4.248-1.001-7.733-3.002-10.456s-4.826-4.085-8.476-4.085c-3.73,0-6.583,1.355-8.557,4.064
				c-1.975,2.71-2.961,6.202-2.961,10.477v10.783c0,4.303,1.001,7.814,3.002,10.537c2.001,2.724,4.867,4.085,8.598,4.085
				c3.621,0,6.426-1.361,8.414-4.085c1.987-2.723,2.981-6.234,2.981-10.537V302.939z"/>
			<path fill="#FFFFFF" d="M720.416,338.106v-59.47H741.9c6.998,0,12.852,2.281,17.563,6.842c4.71,4.561,7.065,10.408,7.065,17.542
				v10.702c0,7.161-2.355,13.016-7.065,17.563c-4.712,4.548-10.565,6.821-17.563,6.821H720.416z M734.263,289.256v38.231h6.698
				c3.676,0,6.549-1.26,8.618-3.778s3.104-5.848,3.104-9.986v-10.783c0-4.111-1.035-7.42-3.104-9.926
				c-2.069-2.505-4.942-3.758-8.618-3.758H734.263z"/>
			<path fill="#FFFFFF" d="M812.235,312.66h-23.322v14.827h27.488v10.619h-41.335v-59.47h41.416v10.619h-27.569v12.785h23.322
				V312.66z"/>
			<path fill="#FFFFFF" d="M889.799,317.234l0.082,0.245c-0.272,6.972-2.335,12.295-6.188,15.971
				c-3.854,3.676-9.442,5.514-16.767,5.514c-7.353,0-13.33-2.26-17.932-6.78c-4.602-4.52-6.902-10.388-6.902-17.604v-12.417
				c0-7.188,2.212-13.05,6.638-17.584c4.424-4.533,10.176-6.8,17.257-6.8c7.515,0,13.26,1.893,17.236,5.677
				c3.975,3.785,6.222,9.163,6.739,16.134l-0.082,0.245h-13.438c-0.191-3.866-1.056-6.739-2.594-8.618
				c-1.539-1.879-4.16-2.818-7.862-2.818c-3.132,0-5.596,1.26-7.394,3.778c-1.797,2.519-2.695,5.82-2.695,9.904v12.499
				c0,4.111,0.98,7.434,2.94,9.966c1.961,2.532,4.656,3.799,8.088,3.799c3.321,0,5.677-0.885,7.065-2.655
				c1.389-1.77,2.179-4.588,2.369-8.455H889.799z"/>
			<path fill="#FFFFFF" d="M911.079,327.487h25.609v10.619h-39.456v-59.47h13.847V327.487z"/>
			<path fill="#FFFFFF" d="M990.358,278.637v38.966c0,6.78-2.254,12.036-6.76,15.766c-4.507,3.731-10.409,5.596-17.706,5.596
				c-7.38,0-13.33-1.864-17.85-5.596c-4.521-3.729-6.78-8.985-6.78-15.766v-38.966h13.847v38.966c0,3.649,0.939,6.352,2.818,8.107
				c1.879,1.757,4.533,2.635,7.965,2.635c3.403,0,6.024-0.871,7.862-2.614c1.838-1.742,2.757-4.452,2.757-8.128v-38.966H990.358z"/>
			<path fill="#FFFFFF" d="M999.426,338.106v-59.47h20.422c7.379,0,13.139,1.368,17.277,4.104c4.139,2.737,6.209,6.815,6.209,12.233
				c0,2.832-0.668,5.351-2.002,7.557c-1.334,2.205-3.39,3.866-6.167,4.982c3.485,0.79,6.059,2.376,7.72,4.759
				c1.66,2.383,2.491,5.126,2.491,8.229c0,5.801-1.947,10.185-5.841,13.152c-3.895,2.969-9.476,4.452-16.746,4.452H999.426z
				 M1013.272,303.43h6.861c3.131-0.055,5.474-0.66,7.025-1.818c1.552-1.156,2.328-2.852,2.328-5.085
				c0-2.532-0.79-4.377-2.369-5.534s-4.003-1.736-7.271-1.736h-6.575V303.43z M1013.272,312.578v14.909h9.517
				c2.94,0,5.146-0.579,6.616-1.736c1.471-1.157,2.206-2.934,2.206-5.33c0-2.587-0.633-4.54-1.899-5.861
				c-1.266-1.32-3.315-1.981-6.146-1.981H1013.272z"/>
		</g>
	</g>
</g>
<g id="Flyers">
</g>
</svg>
